<svg id="a9f9b6b5-770f-43b9-9650-dab4e61227c5" xmlns="http://www.w3.org/2000/svg" viewBox="0 0 673.61 434.55"><defs><style>.cls-1{fill:#1f3642;}.cls-2{fill:none;stroke:#7f7e7e;stroke-miterlimit:10;}.cls-3{fill:#badada;}.cls-4{fill:#e89a4f;}.cls-5{fill:#f2f2f2;}.cls-6{fill:#3f3d56;}.cls-7{fill:#fff;}</style></defs><path class="cls-1" d="M400.35-3c20.86-5.41,43.81-8.67,62.56-19.34,10-5.7,27.83-13.26,34.79.55,2.8,5.55,2.9,12.55,5.1,18.42,5.72,15.23,19.5,26.66,28,40.44,9.56,15.52,17.53,32.33,21.79,50.11,0,0,6.24,34.69-43.23,43.64a65.67,65.67,0,0,0-29.4,13.87c-3.6,3.05-6.3,6.11-10.67,8.15-13.93,6.47-35.08,2.71-47.54-5.47-12.81-8.41-24.5-18.36-35.71-28.77-7.12-6.62-15.13-13-20.6-21.19C354,80.44,352,58.26,353.59,38.37c.87-11.22,2-24.51,8.59-34C371.33-8.94,387.15.45,400.35-3Z"/><path class="cls-2" d="M389.79,11.2c20.87-5.41,43.82-8.67,62.56-19.34,10-5.7,27.83-13.26,34.8.55C490-2,490.05,5,492.25,10.83c5.72,15.23,19.5,26.66,28,40.44,9.55,15.52,17.52,32.34,21.78,50.12,0,0,6.25,34.68-43.23,43.63a65.69,65.69,0,0,0-29.4,13.88c-3.59,3-6.3,6.11-10.67,8.14-13.92,6.47-35.07,2.71-47.54-5.47-12.8-8.41-24.5-18.36-35.7-28.77-7.12-6.61-15.13-13.05-20.6-21.18-11.45-17-13.39-39.2-11.84-59.09.87-11.22,2-24.5,8.6-34C360.77,5.23,376.6,14.61,389.79,11.2Z"/><path class="cls-3" d="M146.25,278.33a55.07,55.07,0,0,1,9.31,3.13c12.58,5,30.59,10.85,39.25,21.87,0,0,23.84,19.08,4.77,38.15-31.84,31.83-79.94,57-126.07,48-16.68-3.25-25.92-14.1-22.34-31.16s14.54-40.62,27.13-52.67a29,29,0,0,1,19.37-8.43c8.53-.34,19.12,3.11,26.18-3.53,4.34-4.08,7.38-11.05,12.55-14.1A13.52,13.52,0,0,1,146.25,278.33Z"/><path class="cls-2" d="M162.51,263a55.37,55.37,0,0,1,9.31,3.13c12.58,5,30.59,10.85,39.25,21.87,0,0,23.84,19.07,4.76,38.15-31.83,31.83-79.94,57-126.06,48-16.68-3.25-25.93-14.1-22.34-31.16S82,302.43,94.56,290.38A29,29,0,0,1,113.93,282c8.53-.34,19.12,3.1,26.18-3.53,4.34-4.09,7.38-11.05,12.55-14.1A13.51,13.51,0,0,1,162.51,263Z"/><path class="cls-4" d="M459.48,327.72a209.12,209.12,0,0,1,30.6-22.8c43.83-26.34,93.47-43.81,145.2-39.06,21.58,2,44.47,5.85,63.7,16.37,18.11,9.92,25.91,25.18,28.06,45.17,3,28-24.18,24.55-43,31.61-13.77,5.16-14.49,13.18-20.06,24.61-10.32,21.21-29,35.65-51.63,41.8-20.76,5.65-47.54,12-66.51-1.6a132.13,132.13,0,0,0-55.45-23.37c-13.12-2.24-25.93-2.61-38-8.7C419.2,375.09,437.16,347.94,459.48,327.72Z"/><path class="cls-2" d="M478.35,348.26A208.94,208.94,0,0,1,509,325.47c43.83-26.35,93.47-43.81,145.2-39.07,21.58,2,44.47,5.86,63.7,16.38,18.11,9.91,25.91,25.17,28.07,45.16,3,28-24.19,24.55-43,31.62-13.77,5.16-14.49,13.18-20.06,24.61-10.32,21.21-29,35.65-51.63,41.8-20.76,5.65-47.54,12-66.51-1.61A132.39,132.39,0,0,0,509.23,421c-13.12-2.23-25.93-2.6-38-8.69C438.07,395.63,456,368.49,478.35,348.26Z"/><path class="cls-5" d="M661.54,10.81H12.09A12.09,12.09,0,0,0,0,22.89V418.05a16.52,16.52,0,0,0,16.5,16.5H657.34a16.52,16.52,0,0,0,16.5-16.5V23.1A12.3,12.3,0,0,0,661.54,10.81Zm-9,388c0,8.2-7.13,14.87-15.88,14.87H39.37c-8.75,0-15.87-6.67-15.87-14.87V54.74c0-6.08,5.27-11,11.76-11H640.54c6.59,0,12,5,12,11.2Z"/><path class="cls-6" d="M673.61,25H-.23v-8.4A16.57,16.57,0,0,1,16.33,0H657.05a16.57,16.57,0,0,1,16.56,16.55Z"/><circle class="cls-7" cx="29.86" cy="12.5" r="4.28"/><circle class="cls-7" cx="46.12" cy="12.5" r="4.28"/><circle class="cls-7" cx="62.38" cy="12.5" r="4.28"/><path class="cls-4" d="M169.68,159.5c-10.91-1-21.87-2-32.47-4.81-4.64-1.21-9.79-3.31-11.31-7.85-1.23-3.66.37-7.63,2.31-11,3.94-6.8,9.34-12.65,14.91-18.2,10.75-10.74,22.75-20.89,37.19-25.59,4-1.32,8.33-2.19,12.52-1.5,11.74,1.94,11.8,13.93,10.47,23.41a49.78,49.78,0,0,1-12.78,27c-3.07,3.27-6.68,6.25-8.36,10.41-.9,2.23-1.26,4.82-3,6.49-2.15,2.07-5.53,1.94-8.5,1.67Z"/><path class="cls-2" d="M163.25,146.63c-10.92-1-21.88-2-32.48-4.81-4.64-1.21-9.79-3.31-11.31-7.86-1.23-3.65.38-7.63,2.31-11,4-6.81,9.34-12.65,14.91-18.21,10.75-10.73,22.75-20.88,37.19-25.59,4-1.31,8.33-2.19,12.52-1.5,11.74,2,11.8,13.93,10.47,23.42a49.81,49.81,0,0,1-12.78,27c-3.07,3.26-6.68,6.25-8.35,10.4-.91,2.23-1.27,4.83-3,6.5-2.14,2.07-5.52,1.94-8.49,1.67Z"/></svg>