<svg xmlns="http://www.w3.org/2000/svg" viewBox="0 0 88.72 89.67"><defs><style>.cls-1,.cls-2{fill:#b7d6d6;}.cls-2{stroke:#b7d6d6;}.cls-2,.cls-3,.cls-4,.cls-5{stroke-miterlimit:10;}.cls-2,.cls-5{stroke-width:0.25px;}.cls-3,.cls-4{fill:none;}.cls-3,.cls-4,.cls-5{stroke:#1d3541;}.cls-3{stroke-width:3px;}.cls-4{stroke-width:3.5px;}.cls-5{fill:#1d3541;}</style></defs><g id="color"><polygon class="cls-1" points="82.33 72.14 53.16 13.99 24.21 72.14 82.33 72.14"/><path class="cls-2" d="M79.15,75.12H13.23L46.06,9.18ZM20,71H72.38L46.07,18.51Z"/><path class="cls-3" d="M17.28,78.06a3.45,3.45,0,1,1-3.44-3.45A3.44,3.44,0,0,1,17.28,78.06Z"/><polyline class="cls-4" points="42.26 76.31 42.87 76.31 44.03 76.31 72.46 76.31 43.92 19.45 15.62 76.31"/><path class="cls-3" d="M46.32,67.2a3.45,3.45,0,1,1-3.45-3.45A3.44,3.44,0,0,1,46.32,67.2Z"/><rect class="cls-5" x="40.76" y="37.98" width="3.93" height="21.92"/></g></svg>