<?xml version="1.0" encoding="utf-8"?>
<!-- Generator: Adobe Illustrator 24.1.0, SVG Export Plug-In . SVG Version: 6.00 Build 0)  -->
<svg version="1.1" id="Capa_1" xmlns="http://www.w3.org/2000/svg" xmlns:xlink="http://www.w3.org/1999/xlink" x="0px" y="0px"
	 viewBox="0 0 512 512" style="enable-background:new 0 0 512 512;" xml:space="preserve">
<style type="text/css">
	.st0{fill:#E8B78E;}
	.st1{fill:#E89A4F;}
	.st2{fill:#FFDDCE;}
	.st3{fill:#FFCBBE;}
	.st4{fill:#41606D;}
	.st5{fill:#1F3642;}
	.st6{fill:#EAAC9D;}
	.st7{fill:#EAA598;}
</style>
<g>
	<path class="st0" d="M308.9,447c32.7,12.2,60.1,35.3,77.6,65h-261c17.5-29.7,44.9-52.8,77.6-65"/>
	<path class="st1" d="M232.9,447c-14.3,12.2-26.2,35.3-33.9,65h-73.5c17.6-29.7,44.9-52.8,77.6-65H232.9z"/>
	<path class="st2" d="M308.9,447L256,512l-38.1-46.9L203.1,447c6.8-2.5,13.8-4.6,21-6.1v-55.2h63.7v55.2
		C295.1,442.4,302.1,444.5,308.9,447z"/>
	<path class="st3" d="M224.1,385.6v42.6v12.7c-7.2,1.5-14.2,3.6-21,6.1l14.8,18.1c12.9-12.9,29.2-10.5,29.2-10.5v-43.9h18.4
		c7.7,0,15.1-0.8,22.4-2.2v-22.8L224.1,385.6L224.1,385.6z"/>
	<path class="st4" d="M114.3,232.1l-17.1-117c-5.5-37.8,14.4-74.7,49.1-90.8c69.5-32.3,149.7-32.3,219.2,0l0,0
		c34.6,16.1,54.6,53,49.1,90.8l-17.1,117l-8.6,42.6l-268.5-1.8"/>
	<path class="st5" d="M256,0c-11.3,0-22.6,8.1-33.1,24.2c-9.3,14.3-15.1,45.1-15.1,78.4c0,4.1,0.1,8.3,0.3,12.5l5.2,117l-58.1,40.8
		l-40.8-40.8l-17-117c-0.6-4.2-0.9-8.4-0.9-12.5c0-33.2,19.2-64,50-78.3C181.1,8.1,218.6,0,256,0L256,0z"/>
	<g>
		<circle class="st3" cx="114.3" cy="272.9" r="40.8"/>
		<circle class="st3" cx="397.7" cy="272.9" r="40.8"/>
	</g>
	<g>
		<path class="st6" d="M136.4,284.7c-2.8,0-5.5-1.5-7-4.1c-2.5-4.5-6.8-7-13.1-7.6c-5.2-0.5-9.7,0.5-9.7,0.5c-4.3,1-8.6-1.6-9.6-5.8
			c-1-4.3,1.6-8.6,5.8-9.6c0.7-0.2,7.2-1.7,15.1-0.9c11.6,1.2,20.4,6.6,25.4,15.7c2.1,3.8,0.8,8.7-3.1,10.8
			C139.1,284.4,137.7,284.7,136.4,284.7L136.4,284.7z"/>
		<path class="st6" d="M375.6,284.7c-1.3,0-2.6-0.3-3.9-1c-3.8-2.1-5.2-7-3.1-10.8c5.1-9.1,13.9-14.6,25.5-15.7
			c7.9-0.8,14.4,0.7,15.1,0.9c4.3,1,6.9,5.4,5.8,9.6c-1,4.3-5.3,6.9-9.6,5.8c-0.2,0-4.8-1.1-10.1-0.5c-6.1,0.7-10.3,3.2-12.7,7.6
			C381.1,283.2,378.4,284.7,375.6,284.7L375.6,284.7z"/>
	</g>
	<path class="st2" d="M338.9,160.2l-26.2-54l-13.3,54H134.8v116c0,61.7,50,111.7,111.7,111.7h19c61.7,0,111.7-50,111.7-111.7v-116
		H338.9z"/>
	<path class="st3" d="M292.5,384.6c-8.6,2.2-17.7,3.3-27,3.3h-19c-61.7,0-111.7-50-111.7-111.7v-116h73v116
		C207.8,328.6,243.8,372.5,292.5,384.6z"/>
	<g>
		<path class="st4" d="M198.4,231.9c-7.5,0-13.5,8.3-13.5,18.5S191,269,198.4,269s13.5-8.3,13.5-18.5S205.9,231.9,198.4,231.9
			L198.4,231.9z"/>
		<path class="st4" d="M313.6,231.9c-7.5,0-13.5,8.3-13.5,18.5s6.1,18.5,13.5,18.5s13.5-8.3,13.5-18.5S321,231.9,313.6,231.9
			L313.6,231.9z"/>
	</g>
	<path class="st4" d="M215.8,218.4c-2,0-4-0.8-5.5-2.3c-6.1-6.1-16.1-6.1-22.2,0c-3,3-7.9,3-10.9,0c-3-3-3-7.9,0-10.9
		c12.2-12.2,31.9-12.2,44.1,0c3,3,3,7.9,0,10.9C219.8,217.6,217.8,218.4,215.8,218.4L215.8,218.4z"/>
	<path class="st4" d="M330.5,218.4c-2,0-4-0.8-5.5-2.3c-6.1-6.1-16.1-6.1-22.2,0c-3,3-7.9,3-10.9,0c-3-3-3-7.9,0-10.9
		c12.2-12.2,31.9-12.2,44.1,0c3,3,3,7.9,0,10.9C334.5,217.6,332.5,218.4,330.5,218.4z"/>
	<path class="st7" d="M256,315c-14.3,0-27.1-9.5-31.1-23.2c-1.2-4.1,1.1-8.4,5.2-9.6c4.1-1.2,8.4,1.1,9.6,5.2
		c2.1,7.2,8.9,12.2,16.3,12.2c7.5,0,14.2-5,16.3-12.2c1.2-4.1,5.5-6.4,9.6-5.2c4.1,1.2,6.4,5.5,5.2,9.6
		C283.1,305.4,270.3,315,256,315z"/>
</g>
</svg>
