<?xml version="1.0" encoding="UTF-8"?>
<svg width="24px" height="24px" viewBox="0 0 24 24" version="1.1" xmlns="http://www.w3.org/2000/svg" xmlns:xlink="http://www.w3.org/1999/xlink">
    <title>google</title>
    <g id="google" stroke="none" stroke-width="1" fill="none" fill-rule="evenodd">
        <g id="Shape-2" transform="translate(4.000000, 4.000000)" fill="#ACACAC">
            <path d="M8.67346939,7.28571429 L8.67346939,10.2 L13.5925656,10.2 C13.3943149,11.4507143 12.1056851,13.8671429 8.67346939,13.8671429 C5.71209913,13.8671429 3.29591837,11.4628571 3.29591837,8.5 C3.29591837,5.53714286 5.71209913,3.13285714 8.67346939,3.13285714 C10.3586006,3.13285714 11.4861516,3.83714286 12.1304665,4.44428571 L14.4846939,2.22214286 C12.9730321,0.837857143 11.0153061,0 8.67346939,0 C3.87827988,0 0,3.80071429 0,8.5 C0,13.1992857 3.87827988,17 8.67346939,17 C13.6793003,17 17,13.5514286 17,8.69428571 C17,8.13571429 16.9380466,7.71071429 16.8637026,7.28571429 L8.67346939,7.28571429 L8.67346939,7.28571429 Z" id="Shape"></path>
        </g>
    </g>
</svg>