<svg xmlns="http://www.w3.org/2000/svg" viewBox="0 0 1283 797"><defs><style>.cls-1{fill:#e89a4f;}.cls-2{fill:#badada;}.cls-3{fill:#1f3642;}</style></defs><g id="homepage"><path class="cls-1" d="M1181,636.49a295.91,295.91,0,0,1-35.09,41c-52.21,50.08-115.23,89.73-188.1,99.39-30.39,4-63.19,5.85-93-2.64-28.1-8-43.64-26.61-52.88-53.52-12.95-37.72,25.68-41.45,49.48-57.1,17.37-11.43,15.86-22.73,20-40.25,7.59-32.49,28.89-58.28,58.14-73.84,26.88-14.3,61.84-31.43,92.28-18.63a186.93,186.93,0,0,0,83.82,14.87c18.8-1,36.59-4.53,55.2.08C1221.7,558.51,1205.42,601.59,1181,636.49Z"/><path class="cls-2" d="M747.33,379.62a405.18,405.18,0,0,1,57.52-46.09c82.81-53.84,177.45-90.93,277.64-85.29,41.79,2.35,86.25,8.28,124.07,27.27,35.64,17.9,51.74,46.83,57.26,85.27,7.74,53.9-45,49-80.93,64-26.22,10.89-27.07,26.43-37,48.87-18.49,41.65-53.63,70.79-96.83,84.2-39.7,12.32-91,26.37-128.51,1.43-33.15-22-69.17-36-108.63-41.33-25.48-3.42-50.22-3.26-74-14.2C672.8,473.81,705.62,420.19,747.33,379.62Z"/><path class="cls-3" d="M787.42,62.25c7.13-7,15.16-11,29.28-11.68C848.94,49,868.12,75,882.33,100.1q17.26,30.57,35.32,60.69c15.71,26.13,33.45,50.93,50.18,76.4,7.65,11.65,17,22.2,23.48,34.62,5.66,10.84,21,40.23,13.62,52.16-6.35,10.24-23.73,8.83-33.73,7.86,0,0-46.45,1-108.67-40.09-12.07-6.89-24.37-13.42-36.79-19.66-15-7.53-30-17.45-46.88-20.21-18-2.94-35.21-1.59-53.19-7.11-12.65-3.89-25-9.69-35-18.49-14-12.31-16.41-28.87-18.63-46.44-2.18-17.31-9-48.86,2.8-64.58,12.7-16.86,42.3-15.6,60.59-14.43,0,0,14.86,8.78,38.82-22.69C779.09,71.8,783.09,66.47,787.42,62.25Z"/><path class="cls-1" d="M89.66,174.25C194,86.86,314.84,10.85,450,2.16c35-2.25,71.17.36,102.83,15.38s58.09,44.19,62.7,78.92c3.58,26.89-5.52,56.09,6.56,80.38,5.68,11.39,15.38,20.15,23.53,29.94,40.35,48.5,37.27,127.45-6.75,172.66-43.58,44.76-112.11,52-174.57,53-59.17,1-119.5-1.41-175.28-21.15-31.9-11.28-61.84-28.09-94.56-36.7-31.12-8.19-63.79-8.7-95.12-16C43.36,345.48-7.06,298.71,26.7,239.3,38.2,219.07,55.86,203.18,73.49,188Q81.5,181.08,89.66,174.25Z"/><path class="cls-3" d="M317.56,483.17c41.32-25.56,88.56-47.87,121.81-83.34,17.78-19,51.09-47.11,75.3-22,9.72,10.08,14.6,25.08,23.26,36.25,22.46,29,59.75,44.4,87.2,68.42,30.91,27.06,59.28,58,80.31,93.39,0,0,36.57,70.53-64,122.77-21.06,10.94-41.28,29.48-54.05,49.47-5.72,9-9.5,17.36-17.56,24.65-25.66,23.23-73.71,29.23-106,19.91-33.18-9.57-65-23.2-96.06-38.14-19.74-9.5-41.27-18-58.48-31.89-36-29-55-75.47-64.87-119.34-5.59-24.73-12-54.1-4.18-79C251.09,489.65,291.42,499.31,317.56,483.17Z"/><path class="cls-2" d="M187.25,493.67a56.79,56.79,0,0,1,3.68,10.82c4.21,15.24,11.5,36,6.67,53.06,0,0-1.85,37.21-35.34,37-55.91-.29-117-20.49-141.92-68.43-9-17.34-4.76-34.75,15.27-46.33s52.09-22.37,73.66-21.78c9.26.25,17,3.33,22.87,9.61,6.64,7.14,10.94,19.33,22.91,19.76,7.36.27,16.7-3.1,23.61-1.21C182.89,487.36,185.47,490.19,187.25,493.67Z"/></g></svg>