<?xml version="1.0" encoding="UTF-8"?>
<svg width="24px" height="24px" viewBox="0 0 24 24" version="1.1" xmlns="http://www.w3.org/2000/svg" xmlns:xlink="http://www.w3.org/1999/xlink">
    <title>like</title>
    <g id="like" stroke="none" stroke-width="1" fill="none" fill-rule="evenodd">
        <path d="M12,6.66666667 C11.7283386,6.34069761 11.4116432,6.05607212 11.0622505,5.81866726 C10.2901344,5.29403105 9.35833893,5 8.4,5 C5.93600006,5 4,6.97820187 4,9.49591279 C4,10.3905042 4.2045939,11.2400115 4.55506306,12.0482024 C5.64208183,14.5571566 8.13260803,16.6744153 10.2763977,18.4969044 C10.8935936,19.0215969 11.4820496,19.5218579 12,20 C12.5179504,19.5218579 13.1064064,19.0215969 13.7236023,18.4969044 C15.8673546,16.6744479 18.3578308,14.5572321 19.4448792,12.0483359 C19.7953842,11.2401052 20,10.3905531 20,9.49591279 C20,6.97820187 18.0639999,5 15.6,5 C14.6416611,5 13.7098656,5.294031 12.9377495,5.81866721 C12.5883568,6.05607212 12.2716614,6.34069761 12,6.66666667 C11.8188924,6.44935396 11.8188924,6.44935396 12,6.66666667 Z" id="basic-/-heart_outline" fill="#C2C2C2"></path>
    </g>
</svg>