<?xml version="1.0" encoding="UTF-8"?>
<svg width="24px" height="24px" viewBox="0 0 24 24" version="1.1" xmlns="http://www.w3.org/2000/svg" xmlns:xlink="http://www.w3.org/1999/xlink">
    <title>login</title>
    <g id="login" stroke="none" stroke-width="1" fill="none" fill-rule="evenodd">
        <path d="M5.00199986,3 C3.89899981,3 3.00200009,3.89699996 3.00200009,5 L3.00200009,9 L5.00199986,9 L5.00199986,5 L19.0020008,5 L19.0020008,19 L5.00199986,19 L5.00199986,15 L3.00200009,15 L3.00200009,19 C3.00200009,20.103 3.89899981,21 5.00199986,21 L19.0020008,21 C20.1050009,21 21.0020008,20.103 21.0020008,19 L21.0020008,5 C21.0020008,3.89699996 20.1040008,3 19.0020008,3 L5.00199986,3 Z M16,12 L11,8 L11,11.0010004 L3,11.0010004 L3,13.0010004 L11,13.0010004 L11,16 L16,12 Z" id="basic-/-exit" fill="#E89A4F"></path>
    </g>
</svg>