<?xml version="1.0" encoding="UTF-8"?>
<svg width="61px" height="46px" viewBox="0 0 61 46" version="1.1" xmlns="http://www.w3.org/2000/svg" xmlns:xlink="http://www.w3.org/1999/xlink">
    <title>nameCard</title>
    <g id="Component" stroke="none" stroke-width="1" fill="none" fill-rule="evenodd">
        <g id="sizeChoice" transform="translate(-16.000000, -133.000000)">
            <g id="nameCard" transform="translate(16.500000, 133.500000)">
                <g id="Group-2" transform="translate(10.500000, 9.000000)" stroke="#ACACAC">
                    <polyline id="Path" points="0 2 2.5 0 5 2"></polyline>
                    <line x1="2.5" y1="0.5" x2="2.5" y2="17" id="Line" stroke-linecap="square"></line>
                    <polyline id="Path-Copy" transform="translate(2.500000, 17.000000) rotate(-180.000000) translate(-2.500000, -17.000000) " points="0 18 2.5 16 5 18"></polyline>
                </g>
                <g id="Group" transform="translate(17.500000, 29.000000)" stroke="#ACACAC">
                    <polyline id="Path-Copy-2" transform="translate(26.500000, 3.000000) rotate(-270.000000) translate(-26.500000, -3.000000) " points="24 4 26.5 2 29 4"></polyline>
                    <line x1="26.5" y1="3" x2="1" y2="3" id="Line-Copy" stroke-linecap="square"></line>
                    <polyline id="Path-Copy-3" transform="translate(1.500000, 3.000000) rotate(-90.000000) translate(-1.500000, -3.000000) " points="-1 4 1.5 2 4 4"></polyline>
                </g>
                <text id="90mm" font-family="PingFangSC-Medium, PingFang SC" font-size="6" font-weight="400" fill="#ACACAC">
                    <tspan x="22.638" y="43">90mm</tspan>
                </text>
                <text id="54mm" transform="translate(4.000000, 17.000000) rotate(-90.000000) translate(-4.000000, -17.000000) " font-family="PingFangSC-Medium, PingFang SC" font-size="6" font-weight="400" fill="#ACACAC">
                    <tspan x="-4.862" y="19">54mm</tspan>
                </text>
                <text id="NameCard-Copy" font-family="PingFangSC-Medium, PingFang SC" font-size="7" font-weight="400" fill="#555555">
                    <tspan x="23.9685" y="7">NameCard</tspan>
                </text>
                <rect id="Rectangle-Copy-5" stroke="#555555" stroke-width="2" x="18.5" y="9.5" width="26" height="17"></rect>
            </g>
        </g>
    </g>
</svg>