<?xml version="1.0" encoding="UTF-8"?>
<svg width="50px" height="50px" viewBox="0 0 50 50" version="1.1" xmlns="http://www.w3.org/2000/svg" xmlns:xlink="http://www.w3.org/1999/xlink">
    <title>startWithTem</title>
    <g id="startWithTem" stroke="none" stroke-width="1" fill="none" fill-rule="evenodd">
        <g id="Group" transform="translate(7.000000, 12.000000)" fill="#7F7E7E" fill-rule="nonzero">
            <path d="M37,0 L37,26 L0,26 L0,0 L37,0 Z M35,2 L2,2 L2,24 L35,24 L35,2 Z" id="Rectangle"></path>
            <path d="M15,3.5 C17.7614237,3.5 20,5.73857625 20,8.5 C20,11.2614237 17.7614237,13.5 15,13.5 C12.2385763,13.5 10,11.2614237 10,8.5 C10,5.73857625 12.2385763,3.5 15,3.5 Z M15,5.5 C13.3431458,5.5 12,6.84314575 12,8.5 C12,10.1568542 13.3431458,11.5 15,11.5 C16.6568542,11.5 18,10.1568542 18,8.5 C18,6.84314575 16.6568542,5.5 15,5.5 Z" id="Oval"></path>
            <polygon id="Path" points="15.229 19.347 25.5026589 7.02406022 37.0974739 20.674832 35.5731357 21.969588 25.516 10.13 15.3297885 22.3501441 8.249 14.927 1.543422 21.5596516 0.137064511 20.1376254 8.29159279 12.0729486"></polygon>
        </g>
    </g>
</svg>