<?xml version="1.0" encoding="UTF-8"?>
<svg width="24px" height="24px" viewBox="0 0 24 24" version="1.1" xmlns="http://www.w3.org/2000/svg" xmlns:xlink="http://www.w3.org/1999/xlink">
    <title>zoomIn</title>
    <g id="zoomIn" stroke="none" stroke-width="1" fill="none" fill-rule="evenodd">
        <path d="M10.5,3 C14.6421356,3 18,6.35786438 18,10.5 C18,14.6421356 14.6421356,18 10.5,18 C6.35786438,18 3,14.6421356 3,10.5 C3,6.35786438 6.35786438,3 10.5,3 Z M10.5,5 C7.46243388,5 5,7.46243388 5,10.5 C5,13.5375661 7.46243388,16 10.5,16 C13.5375661,16 16,13.5375661 16,10.5 C16,7.46243388 13.5375661,5 10.5,5 Z" id="Oval" fill="#555555" fill-rule="nonzero"></path>
        <polygon id="Line" fill="#555555" fill-rule="nonzero" points="15.0857864 16.5 16.5 15.0857864 22.4142136 21 21 22.4142136"></polygon>
        <g id="Group" transform="translate(8.500000, 8.500000)" fill="#555555" fill-rule="nonzero">
            <polygon id="Line-3" points="3 -1 3 5 1 5 1 -1"></polygon>
            <polygon id="Line-3-Copy" points="5 1 5 3 -1 3 -1 1"></polygon>
        </g>
    </g>
</svg>