<?xml version="1.0" encoding="UTF-8"?>
<svg width="24px" height="24px" viewBox="0 0 24 24" version="1.1" xmlns="http://www.w3.org/2000/svg" xmlns:xlink="http://www.w3.org/1999/xlink">
    <title>zoomOut</title>
    <defs>
        <rect id="path-1" x="0" y="0" width="24" height="24"></rect>
    </defs>
    <g id="zoomOut" stroke="none" stroke-width="1" fill="none" fill-rule="evenodd">
        <g id="edit-/-search">
            <mask id="mask-2" fill="white">
                <use xlink:href="#path-1"></use>
            </mask>
            <g id="edit-/-search-(Background/Mask)"></g>
        </g>
        <path d="M10.5,3 C14.6421356,3 18,6.35786438 18,10.5 C18,14.6421356 14.6421356,18 10.5,18 C6.35786438,18 3,14.6421356 3,10.5 C3,6.35786438 6.35786438,3 10.5,3 Z M10.5,5 C7.46243388,5 5,7.46243388 5,10.5 C5,13.5375661 7.46243388,16 10.5,16 C13.5375661,16 16,13.5375661 16,10.5 C16,7.46243388 13.5375661,5 10.5,5 Z" id="Oval-Copy" fill="#555555" fill-rule="nonzero"></path>
        <polygon id="Line-Copy" fill="#555555" fill-rule="nonzero" points="15.0857864 16.5 16.5 15.0857864 22.4142136 21 21 22.4142136"></polygon>
        <g id="Group-Copy" transform="translate(8.500000, 9.500000)" fill="#555555" fill-rule="nonzero">
            <polygon id="Line-3-Copy" points="5 0 5 2 -1 2 -1 0"></polygon>
        </g>
    </g>
</svg>