<?xml version="1.0" encoding="UTF-8"?>
<svg width="107px" height="25px" viewBox="0 0 107 25" version="1.1" xmlns="http://www.w3.org/2000/svg" xmlns:xlink="http://www.w3.org/1999/xlink">
    <title>line3</title>
    <g id="line3" stroke="none" stroke-width="1" fill="none" fill-rule="evenodd">
        <path d="M53.5515722,6 L55.2411889,6.00496737 L56.921724,6.01980075 C57.2010141,6.02308942 57.4798941,6.02678488 57.7583482,6.03088499 L59.4238337,6.06032412 C59.7005204,6.0660342 59.9767493,6.07214463 60.2525048,6.07865325 L61.9012278,6.12246622 C62.1750256,6.13055905 62.4483181,6.13904579 62.7210895,6.14792428 L64.3513372,6.20587915 L65.9683165,6.2731331 L67.571266,6.34958306 L69.1594246,6.43512595 L70.7320309,6.52965869 L72.2883237,6.63307821 L73.8275418,6.74528142 C74.0826129,6.76470821 74.3369409,6.78449668 74.5905099,6.8046447 L76.1026884,6.92983019 L77.595889,7.06354168 L79.0693503,7.20567609 C79.31324,7.23006134 79.5562755,7.25479325 79.798441,7.27986968 L81.2408662,7.4344452 C81.479488,7.46089109 81.7172081,7.48767719 81.9540105,7.51480137 L83.3636867,7.68158608 C83.5967552,7.71005395 83.8288744,7.73885559 84.0600284,7.76798886 L85.4352428,7.94675083 L86.786531,8.1333688 L88.1131319,8.32773968 L89.4142841,8.5297604 C89.6289798,8.56406228 89.8425834,8.59867861 90.055079,8.63360724 L91.3166309,8.84690944 L92.5508309,9.06760379 C92.9575877,9.14238914 93.3596589,9.21838934 93.7569178,9.2955872 L94.9341304,9.5307566 L96.0817074,9.77300891 C96.2704583,9.81396881 96.4579427,9.85521953 96.6441446,9.89675894 L97.7458408,10.1494423 C98.2888677,10.2774989 98.8200675,10.408115 99.339012,10.5412325 L100.360434,10.8107856 L101.348414,11.0869063 C102.481253,11.4128381 103.544261,11.7519681 104.531998,12.1035597 C105.572608,12.4739719 106.11591,13.6178311 105.745498,14.6584409 C105.375086,15.6990506 104.231227,16.242353 103.190617,15.8719409 C102.250366,15.537252 101.234032,15.2138873 100.147132,14.9026483 L99.1983508,14.6388604 C99.0373832,14.5953969 98.8750077,14.5521855 98.7112403,14.5092287 L97.7120622,14.2545598 C97.5427916,14.2126302 97.3721614,14.1709597 97.2001875,14.1295508 L96.1523495,13.8842534 C95.7977815,13.8035461 95.4379676,13.7239034 95.0730366,13.645344 L93.9630208,13.4129347 L92.8230741,13.1871377 C92.6306316,13.1500622 92.4369742,13.1132668 92.2421179,13.0767539 L91.0587224,12.8610857 C90.859135,12.8257123 90.6583809,12.7906261 90.4564761,12.7558294 L89.2313689,12.5505424 C89.024926,12.5169132 88.8173646,12.4835782 88.6087009,12.4505398 L87.3436189,12.2558864 L86.0528521,12.0684624 C85.8356268,12.0378337 85.6173635,12.007511 85.3980782,11.9774964 L84.0702317,11.8011267 C83.8469229,11.7723545 83.6226244,11.7438951 83.3973521,11.7157511 L82.0341629,11.5506881 L80.648377,11.3933033 L79.2407663,11.2437087 C79.0043887,11.2194317 78.7671338,11.195484 78.5290179,11.1718678 L77.0901176,11.034169 L75.6313225,10.9045409 C75.386575,10.883615 75.1410307,10.8630301 74.8947058,10.8427885 L73.4075161,10.7254768 C73.1581327,10.7066177 72.9080007,10.6881065 72.6571363,10.6699457 L71.1432892,10.5652029 L69.6126353,10.4689797 L68.0659468,10.3813881 C67.8068721,10.367515 67.5471614,10.3540063 67.2868308,10.3408642 L65.7175379,10.2664305 L64.1341402,10.2009089 L62.53741,10.1444116 C62.2702201,10.1357537 62.0025069,10.1274764 61.7342864,10.1195822 L60.1190047,10.0768317 C59.8488195,10.070479 59.5781591,10.0645139 59.3070397,10.0589388 L57.6749436,10.0301877 L56.032603,10.0109096 C55.7580687,10.0084923 55.4831397,10.0064743 55.2078322,10.0048581 L53.5515722,10 L51.9384006,10.0046099 L50.3338704,10.0183698 C50.0672084,10.0214197 49.8009361,10.0248466 49.5350684,10.0286482 L47.9448357,10.0559366 C47.6806456,10.0612283 47.4168898,10.0668903 47.153583,10.0729205 L45.5792504,10.1135019 L44.0164081,10.1628143 L42.4657685,10.2207531 C42.208385,10.2311226 41.9515397,10.2418472 41.6952473,10.2529247 L40.1642471,10.3236066 L38.6472302,10.402653 L37.1449088,10.4899593 L35.6579952,10.5854205 L34.1872017,10.6889322 L32.7332406,10.8003894 L31.296824,10.9196875 L29.8786642,11.0467217 L28.4794735,11.1813874 L27.0999642,11.3235797 L25.7408485,11.473194 C25.5160683,11.4987424 25.2921675,11.5245957 25.0691609,11.5507517 L23.7419711,11.7113026 L22.4369556,11.8790136 L21.1548266,12.0537801 C20.9430852,12.08349 20.7323271,12.1134895 20.5225672,12.1437764 L19.2761034,12.3289296 L18.0543069,12.5208765 L16.8578898,12.7195122 L15.6875644,12.924732 C15.494724,12.9594782 15.3030005,12.9944943 15.1124086,13.0297783 L13.9825562,13.244678 L12.8805762,13.4659 C12.6992751,13.5032914 12.519165,13.5409418 12.3402608,13.5788492 L11.2814248,13.8093583 C10.7593606,13.9261368 10.2484164,14.0451879 9.7489926,14.1664528 L8.76562449,14.4119168 C8.60432949,14.4533137 8.44434422,14.4949521 8.28568353,14.5368299 L7.34973297,14.7909528 L6.44628443,15.0507172 C6.29845774,15.0944756 6.15201499,15.1384647 6.006971,15.1826823 L5.15361098,15.4507127 C4.59605271,15.6312046 4.06134957,15.815283 3.55045121,16.0028083 C2.51352562,16.3834119 1.36439116,15.8513578 0.983787564,14.8144322 C0.603183963,13.7775066 1.13523806,12.6283721 2.17216365,12.2477685 C3.12553832,11.8978323 4.15289559,11.5598864 5.24902312,11.2346428 L6.20528113,10.9589899 C6.52956665,10.8681536 6.85934449,10.7783708 7.1944931,10.6896582 L8.2159296,10.4267473 C8.38881387,10.3834694 8.56301044,10.3404632 8.73850411,10.2977308 L9.80690975,10.0446379 C9.98753104,10.0030088 10.169419,9.96165764 10.3525585,9.92058645 L11.4662921,9.67753577 C11.6543769,9.63759283 11.8436827,9.59793404 12.0341945,9.55856145 L13.1916148,9.32577716 C13.7774389,9.2111189 14.3738428,9.09907395 14.9804161,8.98969834 L16.2070005,8.77452285 C16.6203007,8.70399513 17.037999,8.63467039 17.459974,8.56656524 L18.7386072,8.36592516 L20.0421707,8.17270223 L21.369935,7.98699609 L22.7211708,7.80890638 L24.0951486,7.63853273 L25.491139,7.47597478 L26.9084125,7.32133216 L28.3462398,7.1747045 L29.8038913,7.03619145 L31.2806378,6.90589264 L32.7757497,6.7839077 L34.2884976,6.67033627 C34.5420514,6.65211436 34.7963096,6.63424716 35.0512571,6.61673675 L36.5890914,6.5159724 L38.1427382,6.42387065 L39.711468,6.34053112 L41.2945514,6.26605347 L42.891259,6.20053731 L44.5008614,6.1440823 L46.1226291,6.09678806 L47.7558328,6.05875422 L49.3997429,6.03008043 L51.0536301,6.01086632 C51.3300688,6.00845781 51.6068929,6.0064476 51.8840871,6.00483778 L53.5515722,6 Z" id="Path" fill="#E89A4F" fill-rule="nonzero"></path>
    </g>
</svg>