<?xml version="1.0" encoding="UTF-8"?>
<svg width="109px" height="25px" viewBox="0 0 109 25" version="1.1" xmlns="http://www.w3.org/2000/svg" xmlns:xlink="http://www.w3.org/1999/xlink">
    <title>line11</title>
    <defs>
        <polygon id="path-1" points="0 0 106 0 106 9 0 9"></polygon>
    </defs>
    <g id="line11" stroke="none" stroke-width="1" fill="none" fill-rule="evenodd">
        <g id="Group-3" transform="translate(2.000000, 7.000000)">
            <mask id="mask-2" fill="white">
                <use xlink:href="#path-1"></use>
            </mask>
            <g id="Clip-2"></g>
            <path d="M21.2898629,1.07828747 C30.9065558,0.48471476 42.6512452,1.25800205 52.3600366,0.718858314 C64.0095418,0 76.6313029,0 88.281995,0 C88.281995,0.359231233 87.3111633,0.898374968 88.281995,1.07828747 C92.1653216,1.61723328 92.1653216,2.33628952 92.1653216,3.05514783 C92.1653216,3.41477491 89.253064,3.05514783 90.2231836,3.41477491 C87.3111633,3.41477491 82.4536819,3.59448949 85.3690253,3.9535228 C86.3400943,4.31334781 90.2231836,3.9535228 91.1930658,4.49266654 C92.1653216,5.0320082 90.2231836,5.57115193 91.1930658,6.10989982 L95.0785287,6.10989982 C96.0476988,6.46992275 94.1072223,7.18878106 95.0785287,7.18878106 C97.9907863,7.54821022 101.875062,7.36829771 105.756253,7.36829771 C105.756253,7.7279248 106.729221,8.08715603 104.78732,8.26706853 C70.8051261,8.62649769 35.8525752,9.34555392 1.87133065,8.80581642 C-2.01175863,8.62649769 0.901448459,7.90763937 3.81370608,7.36829771 C2.84358652,7.54821022 2.84358652,7.00886856 1.87133065,7.18878106 C1.87133065,6.6494394 3.81370608,5.75106443 7.6979822,5.57115193 L4.78477511,5.57115193 C3.81370608,5.39163528 4.78477511,5.0320082 4.78477511,4.67277696 C5.75679361,4.67277696 6.72667581,4.67277696 6.72667581,4.49266654 L6.72667581,3.77400615 L2.84358652,3.77400615 C3.81370608,3.77400615 4.78477511,3.77400615 4.78477511,3.59448949 L4.78477511,2.87503741 C6.72667581,2.69571868 9.63893343,3.05514783 11.5822583,2.87503741 L11.5822583,2.33628952 C9.63893343,2.15637702 6.72667581,2.33628952 4.78477511,2.33628952 C5.75679361,2.15637702 5.75679361,1.97686036 5.75679361,1.61723328 C8.66905123,1.43712286 11.5822583,1.97686036 14.4933291,1.43712286 L11.5822583,1.43712286 C13.5232096,0.538549965 18.3766558,1.25800205 21.2898629,1.07828747" id="Fill-1" fill="#E89A4F" mask="url(#mask-2)"></path>
        </g>
    </g>
</svg>