<?xml version="1.0" encoding="UTF-8"?>
<svg width="107px" height="25px" viewBox="0 0 107 25" version="1.1" xmlns="http://www.w3.org/2000/svg" xmlns:xlink="http://www.w3.org/1999/xlink">
    <title>line4</title>
    <defs>
        <filter id="filter-1">
            <feColorMatrix in="SourceGraphic" type="matrix" values="0 0 0 0 0.910751 0 0 0 0 0.603457 0 0 0 0 0.310796 0 0 0 1.000000 0"></feColorMatrix>
        </filter>
        <polygon id="path-2" points="0.13545 0.030875 0.3575 0.030875 0.3575 0.280875 0.13545 0.280875"></polygon>
        <polygon id="path-4" points="0.0513993779 0.1715 0.301399378 0.1715 0.301399378 0.379521801 0.0513993779 0.379521801"></polygon>
        <polygon id="path-6" points="0 0.1715 106.864467 0.1715 106.864467 3.9999 0 3.9999"></polygon>
    </defs>
    <g id="line4" stroke="none" stroke-width="1" fill="none" fill-rule="evenodd">
        <g filter="url(#filter-1)" id="Group-108">
            <g transform="translate(0.000000, 10.000000)">
                <polygon id="Fill-1" fill="#E89A4F" points="1 3.52111111 107 3.52111111 107 2.52111111 1 2.52111111"></polygon>
                <g id="Group-107" transform="translate(0.000000, 0.521111)">
                    <path d="M106.35995,2.7867 C106.421296,2.90895 106.560634,2.81745 106.533052,2.56895 C106.45411,2.52295 106.375405,2.48995 106.296701,2.46945 L106.35995,2.7867 Z" id="Fill-2" fill="#FFFFFF"></path>
                    <path d="M106.147947,1.326 C105.942983,1.386 105.760369,1.469 105.660978,1.5655 C105.538998,1.662 105.492869,1.77175 105.61152,1.88575 C105.634347,1.8715 105.655985,1.85775 105.676672,1.84475 C105.691414,1.83225 105.699974,1.821 105.7121,1.81075 C105.734689,1.79 105.756803,1.77325 105.778678,1.75875 C105.822667,1.73025 105.86404,1.7115 105.908267,1.69125 C106.001,1.65075 106.08874,1.60475 106.34126,1.46275 C106.484165,1.44825 106.588787,1.468 106.629209,1.50275 C106.59592,1.62075 106.548127,1.70275 106.504376,1.72325 C106.534812,1.73875 106.521734,1.85225 106.519594,1.95825 C106.517929,2.0655 106.526727,2.166 106.600914,2.2035 C106.702207,1.9565 106.749525,1.652 106.746196,1.37975 C106.539329,1.383 106.288712,1.4205 106.063298,1.49125 C105.984594,1.4365 106.100867,1.37175 106.147947,1.326" id="Fill-4" fill="#FFFFFF"></path>
                    <path d="M75.6805769,0.9389 L75.8769813,0.9684 C75.8234813,0.95215 75.7561902,0.94315 75.6805769,0.9389" id="Fill-6" fill="#FFFFFF"></path>
                    <path d="M56.7938642,0.802675 C56.937482,0.796675 56.9976398,0.771925 57.0050109,0.749675 C56.8713798,0.765925 56.7617642,0.781175 56.7938642,0.802675" id="Fill-8" fill="#FFFFFF"></path>
                    <path d="M53.5692171,0.529125 C53.6384104,0.535125 53.696666,0.540375 53.7592016,0.545875 C53.6869171,0.523125 53.6139193,0.510375 53.5692171,0.529125" id="Fill-10" fill="#FFFFFF"></path>
                    <path d="M75.6805769,0.9389 L75.1760124,0.8609 C75.1405836,0.9419 75.4347147,0.9209 75.6805769,0.9389" id="Fill-12" fill="#FFFFFF"></path>
                    <path d="M101.960134,1.92475 C102.065707,1.91275 102.153447,1.8895 102.234054,1.8595 C102.147265,1.87025 102.063567,1.879 101.97654,1.88575 C101.972022,1.89925 101.96798,1.91075 101.960134,1.92475" id="Fill-14" fill="#FFFFFF"></path>
                    <path d="M84.0065322,0.737625 L84.1601367,0.737375 C84.2050767,0.709125 84.2474011,0.674875 84.2873478,0.636375 L84.0065322,0.737625 Z" id="Fill-16" fill="#FFFFFF"></path>
                    <path d="M90.3960967,0.699525 C90.2517656,0.690275 90.2013567,0.901275 90.1459544,0.993275 C90.2275122,0.906525 90.3342744,0.865025 90.46101,0.848775 C90.4633878,0.808775 90.4446033,0.760775 90.3960967,0.699525" id="Fill-18" fill="#FFFFFF"></path>
                    <path d="M100.527903,1.0705 L100.707901,1.04125 C100.661058,1.05025 100.582354,1.05875 100.527903,1.0705" id="Fill-20" fill="#FFFFFF"></path>
                    <path d="M79.4331382,0.692075 C79.4224382,0.660825 79.3993738,0.633325 79.3748827,0.616575 C79.3748827,0.643075 79.3979471,0.668325 79.4331382,0.692075" id="Fill-22" fill="#FFFFFF"></path>
                    <path d="M99.4279429,1.797075 C99.4229496,1.812075 99.4300829,1.821575 99.4284184,1.834575 C99.4655118,1.813325 99.4769251,1.798325 99.4279429,1.797075" id="Fill-24" fill="#FFFFFF"></path>
                    <g id="Group-28" transform="translate(106.524444, 2.750000)">
                        <mask id="mask-3" fill="white">
                            <use xlink:href="#path-2"></use>
                        </mask>
                        <g id="Clip-27"></g>
                        <path d="M0.326075,0.091125 L0.218075,0.102375 C0.206575,0.142375 0.194825,0.181625 0.194825,0.220625 L0.326075,0.091125 Z" id="Fill-26" fill="#FFFFFF" mask="url(#mask-3)"></path>
                    </g>
                    <g id="Group-31" transform="translate(47.555556, 0.000000)">
                        <mask id="mask-5" fill="white">
                            <use xlink:href="#path-4"></use>
                        </mask>
                        <g id="Clip-30"></g>
                        <path d="M0.118075,0.258975 C0.130075,0.260725 0.134075,0.261475 0.145575,0.262975 C0.308825,0.238975 0.216325,0.243225 0.118075,0.258975" id="Fill-29" fill="#FFFFFF" mask="url(#mask-5)"></path>
                    </g>
                    <path d="M6.65340267,3.658875 C6.03969822,3.470625 7.65230711,3.416875 6.72830267,3.207875 C6.81437822,3.290125 5.88847156,3.536375 6.65340267,3.658875" id="Fill-32" fill="#FFFFFF"></path>
                    <path d="M101.794569,1.89705 C101.708256,1.89955 101.620753,1.9013 101.532538,1.8993 C101.651664,1.90605 101.732271,1.90505 101.794569,1.89705" id="Fill-34" fill="#FFFFFF"></path>
                    <path d="M6.72827889,3.207825 L6.72827889,3.205825 L6.63293,3.186075 C6.67240111,3.195075 6.69451444,3.200075 6.72827889,3.207825" id="Fill-36" fill="#FFFFFF"></path>
                    <path d="M34.0700602,0.3858 C34.0978802,0.4228 34.1520936,0.45105 34.2086847,0.47805 C34.2039291,0.4563 34.1727802,0.43005 34.0700602,0.3858" id="Fill-38" fill="#FFFFFF"></path>
                    <path d="M44.199988,0.685625 L43.9493702,0.657625 C44.0487613,0.676625 44.129368,0.683375 44.199988,0.685625" id="Fill-40" fill="#FFFFFF"></path>
                    <path d="M28.8104871,0.6833 C28.6742404,0.6673 28.6278738,0.63805 28.4416938,0.6663 C28.4590516,0.67705 28.4761716,0.68455 28.4982849,0.69205 C28.565576,0.66305 28.6552182,0.6498 28.8104871,0.6833" id="Fill-42" fill="#FFFFFF"></path>
                    <path d="M23.3359153,0.684525 C23.3649242,0.700525 23.4032064,0.712775 23.4369709,0.727025 C23.4911842,0.723525 23.5544331,0.719275 23.6105487,0.715775 L23.3359153,0.684525 Z" id="Fill-44" fill="#FFFFFF"></path>
                    <path d="M82.7904653,1.8985 C82.9105431,1.95775 82.9849676,2.02325 83.0432231,2.088 C82.958812,1.938 83.7632142,1.8845 82.7904653,1.8985" id="Fill-46" fill="#FFFFFF"></path>
                    <path d="M101.957352,1.806225 C101.925252,1.859475 101.878409,1.885725 101.794474,1.896975 C101.857485,1.893225 101.917643,1.889475 101.976612,1.885725 C101.992543,1.854475 101.996109,1.824725 101.957352,1.806225" id="Fill-48" fill="#FFFFFF"></path>
                    <path d="M28.5878082,2.346375 L27.7180171,2.315125 C27.9612638,2.335625 28.2772704,2.346375 28.5878082,2.346375" id="Fill-50" fill="#FFFFFF"></path>
                    <path d="M43.5161391,1.928525 L43.7158724,1.903275 C43.6388324,1.898525 43.5679747,1.904525 43.5161391,1.928525" id="Fill-52" fill="#FFFFFF"></path>
                    <path d="M25.1368918,2.346375 C24.9816229,2.272125 24.8170807,2.228875 24.6470696,2.200625 C24.6111651,2.217125 24.5700296,2.230625 24.546014,2.255125 L25.1368918,2.346375 Z" id="Fill-54" fill="#FFFFFF"></path>
                    <path d="M83.0451967,2.090275 C83.0432944,2.089275 83.0432944,2.088025 83.0432944,2.088025 C83.0432944,2.088025 83.0432944,2.089275 83.0451967,2.090275" id="Fill-56" fill="#FFFFFF"></path>
                    <g id="Group-60">
                        <mask id="mask-7" fill="white">
                            <use xlink:href="#path-6"></use>
                        </mask>
                        <g id="Clip-59"></g>
                        <path d="M71.2310651,3.68915 C70.9735518,3.7189 70.8874762,3.67765 70.8520473,3.6344 C70.9735518,3.63065 71.1159807,3.62365 71.3023984,3.60915 C71.3100073,3.60115 71.3252251,3.59215 71.332834,3.5834 C71.3083429,3.62365 71.2802851,3.6614 71.2310651,3.68915 M67.7901829,2.22815 C67.9882518,2.2364 68.2348273,2.2379 68.4959073,2.2364 C68.552974,2.30915 68.4911518,2.38415 68.3275607,2.3804 C68.4164896,2.33165 68.032954,2.28965 67.7901829,2.22815 M69.4170584,2.2249 L69.4170584,2.22065 C69.5837407,2.21565 69.7259318,2.2114 69.8165251,2.20865 C69.7333029,2.21215 69.6182184,2.21665 69.4170584,2.2249 M88.7740718,1.5894 C87.9454162,1.5834 88.3850673,1.86065 88.2091118,2.01965 C87.2199562,2.0984 87.7513896,1.81565 87.414934,1.6739 C86.7969496,1.74715 86.3232962,2.00165 85.8627207,1.9909 C85.8284807,1.94515 85.7388384,1.92865 85.8436984,1.8714 C85.1907607,2.09165 83.905334,1.88215 83.1446829,2.1589 C83.087854,2.1344 83.0593207,2.11115 83.0452918,2.09015 C83.1682229,2.22915 83.1872451,2.37015 83.1620407,2.4704 C82.790394,2.47515 82.4724851,2.6454 82.3326718,2.4644 C82.5604629,2.46965 82.5794851,2.39665 82.6860096,2.34015 L82.2967673,2.41865 C81.9462829,2.1584 82.8282007,2.32865 82.8282007,2.1359 C82.0689762,2.22065 81.1842051,2.43615 80.6026007,2.3624 C80.4810962,2.1079 81.9629273,2.2769 81.1865829,2.0504 L82.0868096,2.14765 C81.3989184,1.7459 82.6336984,2.17565 82.0016851,1.7459 C80.817314,1.6719 80.6767873,1.87565 79.4952696,1.8014 C79.2291962,1.9429 79.5832473,2.0109 79.317174,2.1524 C77.6377496,2.40665 77.9951296,1.5119 76.7605873,1.85115 C76.441014,2.0209 76.3171318,2.34315 75.4378296,2.17265 L75.7376673,1.88465 C74.5908651,1.85615 75.0830651,2.29865 73.8818118,2.1049 C74.0953362,1.99165 74.7832273,2.0094 74.6096496,1.97515 C73.8318784,1.7479 74.0594318,2.13865 73.4614207,2.13865 L73.3373007,1.8834 C72.1165496,1.92365 70.7716784,2.1079 69.4194362,2.1544 C69.4940984,2.0784 69.7259318,1.99865 69.4094496,1.92065 C67.7041073,2.04815 65.7690718,1.88965 64.1238873,1.7384 L63.4954407,1.9584 C63.3494451,1.9559 63.224374,1.8589 63.3824962,1.8164 C62.7414473,1.7329 63.3494451,1.9559 63.0412851,2.0424 C62.676534,2.0579 62.5593096,1.9159 62.7906673,1.8499 C61.6593207,2.0364 59.5678273,2.2519 58.3760851,2.01615 L58.608394,1.95065 C57.6801096,1.8614 57.5609829,2.4019 56.6999896,2.19665 L56.8652451,2.15765 C54.850554,2.06215 52.6244784,2.2639 51.0874829,1.9314 C50.795254,2.24865 49.0934784,1.79015 48.9641273,2.2324 C47.8137584,2.01315 48.1430807,1.93415 46.5231007,1.7869 C46.0905829,1.76665 45.8782473,2.0629 45.3432473,2.10915 L45.3301696,1.8779 L44.6039962,2.1204 L44.2176073,1.8439 L43.7158962,1.90315 C43.9158673,1.9169 44.1405673,2.00715 44.1101318,2.0739 C43.326654,2.1784 42.1998251,1.91265 42.1803273,1.79415 L40.326374,1.98965 C40.3675096,1.89665 40.6780473,1.8649 40.923434,1.8054 C39.9338029,2.0414 40.743674,1.5619 39.8367896,1.77815 C39.958294,1.83065 39.7711629,1.9159 39.7504762,1.96265 C39.2984607,1.8229 38.2693584,1.82165 37.507994,1.88065 L37.6539896,1.72115 C36.2786829,1.68065 34.7547651,1.79765 33.2113496,1.79465 C33.7648962,1.8689 33.6376851,2.14515 33.185194,2.17165 L33.0040073,1.9279 C32.7117784,2.0784 33.4769473,2.01965 32.877034,2.20465 C32.3004229,2.1764 32.4892184,1.92665 32.8204429,1.84715 L32.119474,1.93215 C32.0783384,1.8589 32.2426429,1.8204 32.2854429,1.7274 C31.9977318,1.8794 31.0756296,1.4824 30.6604696,1.7459 L30.6209984,1.67315 C29.0780584,1.67115 28.3782784,1.75515 27.1213851,1.7674 C27.096894,1.9784 26.6054073,1.9314 26.2309073,2.1019 C25.3073784,2.03465 24.2820807,1.8689 23.1692807,1.8869 C22.3872296,1.99165 22.9407762,2.0654 22.5891029,2.19065 C22.5315607,1.99865 21.4201873,2.01665 21.9965607,1.87865 C20.6609629,1.9099 20.2907429,1.9169 18.6015696,2.0729 C18.7846584,2.1519 18.9910496,2.1859 18.8840496,2.2514 C18.577554,2.2829 18.1866473,2.1709 18.2306362,2.0784 L18.3114807,2.0589 C16.4154407,2.34665 13.9351807,1.49865 12.4252918,1.89915 L12.5099407,1.8794 L10.944174,2.08815 C10.2239451,2.05465 11.3762162,1.94365 10.8431184,1.82465 C9.15418289,2.14515 8.17453844,1.77815 6.78353844,1.99165 C6.24520956,1.7084 5.290294,1.7184 4.28782289,1.7539 C3.78682511,1.7719 3.27393844,1.7959 2.79552956,1.79315 C2.55632511,1.79165 2.32568067,1.7834 2.10954067,1.76415 C2.05532733,1.75865 2.00230289,1.75315 1.94999178,1.7479 C1.92454956,1.74165 1.93096956,1.73465 1.92169622,1.7269 C1.91075844,1.71115 1.90457622,1.6924 1.90552733,1.6699 C1.891974,1.7144 1.88151178,1.7589 1.87414067,1.8034 C1.81659844,1.8689 1.78663844,1.84965 1.793534,1.8104 C1.79710067,1.77115 1.82967622,1.71165 1.83038956,1.6964 C1.73456511,1.7999 1.81089178,1.8164 1.70508067,1.8889 C1.67987622,1.89265 1.65490956,1.8964 1.628754,1.9004 C1.60996956,2.00965 1.60140956,2.0714 1.60069622,2.14365 C1.69842289,2.14315 1.80066733,2.1469 1.89768067,2.15365 C2.19989622,2.16365 2.50330067,2.17365 2.80765622,2.18365 C3.486274,2.20915 4.168934,2.2444 4.85230733,2.2829 C6.21881622,2.36015 7.588654,2.45015 8.93732956,2.4999 C10.1302607,2.53565 9.61428289,1.8094 11.1182273,2.12815 L10.6914162,2.3759 C13.099154,2.0784 15.6146051,2.38615 17.9716962,2.1339 C17.8309318,2.19115 17.8271273,2.2654 17.5971962,2.26465 C18.0948651,2.4444 19.4380718,2.2734 19.446394,2.1264 C19.8135229,2.14315 19.5315184,2.25915 19.7576451,2.3339 C20.2569784,2.44015 21.0109718,2.10415 21.2763318,2.28315 C21.3215096,2.3124 21.1360429,2.34165 21.0447362,2.35565 C21.370254,2.2684 22.5610451,2.37765 22.2490807,2.17015 C23.1338518,2.26915 23.9415829,2.07765 24.6470696,2.20065 C25.1071696,1.9684 26.1614762,2.3124 26.3074718,1.98415 C26.2442229,2.3234 27.8584962,2.25765 28.4177496,2.09815 C28.2306184,2.20065 28.9042429,2.2044 28.684774,2.3464 C29.3232073,2.34165 29.9081407,2.27865 29.7968607,2.1044 C30.9729096,2.5104 32.1606096,1.77765 32.8228207,2.2979 C34.7188607,2.11565 36.4736607,1.99215 38.1792407,1.91265 C38.1176562,2.25115 36.2936629,1.9464 36.3668984,2.30165 C37.985214,2.16215 38.918254,1.87165 40.5230162,1.9534 C40.938414,1.99965 40.2871407,2.10015 40.1468518,2.1579 C41.7632651,2.01865 43.2724407,2.1889 44.7107584,2.00465 C44.706954,2.03615 44.5516851,2.0704 44.4049762,2.09615 C44.6886451,2.08515 45.064334,2.14565 45.032234,1.99215 L44.7559362,2.0339 C44.3034451,1.81065 45.881814,1.56765 45.9324607,1.44965 C45.4514362,1.8904 47.3534207,1.56065 46.5889651,2.1174 C46.7756207,2.0884 47.009594,2.01565 46.966794,1.91265 C47.2435673,1.94265 47.3315451,2.00265 47.0507296,2.11965 C48.0662784,2.03615 47.7055696,1.8724 48.6255318,1.87615 C48.6222029,1.9504 48.4364984,1.9794 48.3413873,2.0669 C48.8069562,1.92165 49.2751407,1.7764 50.052674,1.8394 C50.0058318,1.88415 50.0959496,1.94265 49.8641162,1.94165 C51.1992384,1.9189 52.1398873,1.5549 53.6048362,1.69515 C53.172794,2.01865 54.1029807,1.80165 54.1804962,2.08165 L54.968254,1.99815 L54.6522473,1.86215 C55.3420407,1.86715 55.9519407,1.66315 56.5449584,1.7549 L56.0323096,1.87015 L57.3253451,1.81715 L56.5934651,1.7109 C57.2915807,1.56665 56.5185651,1.3564 57.4368629,1.4344 C57.2504451,1.46265 58.1271318,1.43815 58.4866518,1.6029 L58.4845118,1.60365 C58.8257229,1.51465 59.1769207,1.42065 59.6871918,1.49015 C59.819634,1.57965 59.5804296,1.7999 59.6667429,1.8594 C60.0034362,1.62565 61.2826807,1.7944 61.7090162,1.54515 C61.5668251,1.60365 61.559454,1.7509 61.6060584,1.78065 L61.8887762,1.5904 C62.2083496,1.6514 62.2551918,1.6809 62.2033562,1.79815 C63.1646918,1.8329 61.8980496,1.4429 63.0389073,1.5959 C62.9492651,1.61115 62.9923029,1.63965 62.8054096,1.6684 C63.9517362,1.7484 65.0195962,1.5479 66.072714,1.6414 C66.3834896,1.9234 65.1527518,1.7104 65.5084673,1.94815 C67.0266784,1.89715 68.6523651,1.6104 70.1213562,1.6769 L69.847674,1.64565 C70.0514496,1.2479 70.9419273,1.84215 71.6849829,1.65465 C71.5030829,1.68415 71.4464918,1.8754 71.495474,1.83115 C72.5017496,1.89515 73.5527273,1.7334 75.0773584,1.60815 L74.8885629,1.7104 C75.4813429,1.80165 76.4500496,1.7629 77.0906229,1.8094 C77.2806073,1.70765 77.6470229,1.72415 77.4244629,1.5754 C79.3994451,2.15765 81.191814,1.2634 82.9442362,1.7484 C82.734754,1.7494 82.4446651,1.83765 82.6113473,1.83765 L84.1041162,1.7439 C83.9861784,1.57065 83.9081873,1.63915 83.5947962,1.50415 C83.7838296,1.4014 84.204934,1.32165 84.5749162,1.32165 C83.9036696,1.43665 84.5808607,1.60015 84.8707118,1.69665 C84.8219673,1.64365 84.9213584,1.5849 84.8968673,1.53115 C85.6765407,1.8394 85.0274073,1.1824 86.0921762,1.39015 L86.0358229,1.4809 C86.4341007,1.4344 86.8009918,1.31415 87.230894,1.34015 C87.4089896,1.54065 86.8069362,1.4339 86.7795918,1.5989 C87.3830718,1.58715 87.9701451,1.21915 88.5163207,1.41865 C88.2599962,1.47465 87.8912029,1.47565 87.6351162,1.53115 C88.2297984,1.7664 88.2989918,1.70665 88.7407829,1.7439 L88.6972696,1.73865 L89.7190007,1.8454 L89.4588718,1.78165 C90.214054,1.25865 90.9965807,1.6859 92.013794,1.34365 C91.025114,1.66765 91.8504407,1.53115 91.7745896,1.75815 C92.0342429,1.82115 92.4291918,1.8919 92.3169607,1.9559 C92.7975096,1.7724 93.1194607,2.10015 93.7978407,1.83215 C93.8282762,1.90515 94.312154,1.8394 94.2037273,2.0229 C94.8290829,1.9654 94.0560673,1.8959 94.108854,1.8039 C95.0723296,1.55415 96.3734496,2.10715 97.7594562,1.76415 C98.9547651,1.62315 99.1756607,1.3764 100.284656,1.25365 C100.659156,1.37065 99.9781607,1.52015 99.9781607,1.52015 C100.582116,1.62765 101.03651,1.6079 101.605512,1.52415 C101.490427,1.5879 101.609078,1.64215 101.782418,1.72415 C102.23919,1.7049 102.087725,1.4579 102.690254,1.56565 C102.586821,1.64715 102.454141,1.77765 102.234196,1.8594 C102.772287,1.79215 103.303721,1.65565 103.861072,1.58965 C104.008732,1.71715 103.524616,1.7829 103.328212,1.86615 C103.954281,1.8089 104.950807,1.7509 105.143883,1.5489 L104.742276,1.4769 C104.970543,1.46715 104.859738,1.65015 104.691392,1.68715 C104.154727,1.8454 103.917425,1.61715 103.88699,1.54365 L104.283841,1.49665 C103.87629,1.0679 102.690254,1.56565 101.891321,1.54065 L102.224447,1.22865 L101.405065,1.48765 C101.231012,1.40665 101.111885,1.23215 101.506121,1.18565 C100.933552,1.03165 100.999178,1.2964 100.507454,1.12465 C100.453003,1.0979 100.477732,1.0829 100.527903,1.0704 L99.9684118,1.1634 C100.078027,1.0979 99.8754407,0.94315 100.21903,0.98815 C99.214894,0.80815 98.6000007,1.22215 98.2216962,0.9859 L98.3056318,0.9664 C96.9124918,1.0719 98.1710496,1.19565 97.1257784,1.4644 L96.4226696,0.8994 L96.2857096,1.1284 C96.141854,1.12015 95.8574718,1.1029 95.9102584,1.0114 C95.3752584,1.16815 96.0013273,1.1109 95.6907896,1.2589 C94.999094,1.0504 93.7833362,1.3564 93.6271162,0.99165 C93.379114,1.16565 94.2890896,1.12615 93.550314,1.2469 C93.3396429,0.85465 92.696454,1.31415 92.0644407,1.13415 C92.2587051,0.93165 92.8574296,1.0389 92.2249407,0.85815 C91.8435451,1.2004 90.9942029,0.78315 90.4611051,0.8489 C90.4361384,1.1214 89.3019384,0.9624 88.4074184,1.05315 C88.4640096,0.96165 86.7239518,0.9034 85.8919673,0.8049 L85.9164584,0.75915 C85.7554829,1.03465 84.8968673,0.98265 84.2719873,1.03965 C84.2964784,0.87465 84.4089473,0.80965 84.7475429,0.7359 L84.159994,0.73715 C84.0213696,0.8254 83.8380429,0.8719 83.4568851,0.9034 L83.6045451,0.69765 C82.822494,0.70915 82.0297429,0.94015 81.0234673,0.80265 C80.9668762,0.99465 81.8238273,1.3374 80.7597718,1.46565 C80.7203007,1.3619 80.6810673,1.18415 80.9595051,1.1419 C80.8681984,1.15515 80.6342251,1.2279 80.4504229,1.18365 L80.8755696,1.0089 C80.417134,0.9324 80.6358896,1.1549 80.269474,1.13865 C80.2766073,0.99065 79.9981696,1.0329 80.0509562,0.9154 C80.1444029,0.90115 80.3705296,0.97665 80.5108184,0.9184 C80.0975607,0.89215 79.5982273,0.80415 79.4332096,0.69215 C79.469114,0.7764 79.4332096,0.8914 79.1305184,0.91065 C78.3484673,0.9214 78.8630184,0.7324 78.4067229,0.65665 C78.2174518,0.75915 77.7183562,0.65265 77.7055162,0.87415 C77.4765362,0.8729 77.4342118,0.76965 77.3457584,0.70965 C76.9410607,0.8074 75.4551873,0.73765 75.9114829,0.97315 L76.015154,0.98865 C75.995894,0.9914 75.9728296,0.9949 75.9490518,0.9984 L75.9521429,0.9984 L75.9490518,0.9984 C74.6224896,1.2184 73.1932073,0.8729 71.8768696,0.96765 L71.8790096,0.89365 C71.093154,0.97815 70.130154,0.94365 69.5689984,1.1029 C69.3366896,1.10265 69.0204451,0.96765 69.1198362,0.87965 C68.5192096,0.93515 68.4519184,1.0184 67.5842673,0.89615 C68.1882229,0.7669 67.375974,0.78165 68.2032029,0.80165 C67.4225784,0.73765 67.2459096,0.6189 66.4079807,0.8214 C66.693314,0.63165 65.8204318,0.58265 65.4494984,0.63915 L65.9961496,0.7749 C65.5790873,0.80265 65.2143362,0.7859 64.8438784,0.76965 L65.0440873,0.52015 C63.4471718,0.2164 62.1641229,1.03665 60.9481273,0.5284 C60.525834,0.70315 61.8155407,0.6514 61.4377118,0.85565 C60.7032162,0.8219 59.9378096,0.46365 59.7076407,0.4629 C58.7013651,0.32465 58.7686562,0.82765 57.7157762,0.73315 C57.8503584,0.8219 57.9775696,1.0594 57.1905251,1.1434 C56.4553162,1.1104 56.2869696,0.77015 56.7511118,0.69865 C56.9273051,0.69115 57.0124296,0.7194 57.0048207,0.74965 C57.2423607,0.71715 57.5540873,0.6789 57.2630473,0.58265 L57.1676984,0.67165 C56.8029473,0.58065 55.7914407,0.59015 56.0289807,0.44415 C55.4735318,0.52915 55.7914407,0.59015 56.203034,0.6364 C55.2600073,0.5074 54.7297629,0.63265 53.7593918,0.5459 C53.9134718,0.59515 54.0559007,0.69965 53.9020584,0.69865 C52.4784829,0.5884 53.2752762,0.8674 52.3106118,0.9064 C51.762534,0.7709 52.5070162,0.58265 51.5359318,0.69615 C50.9431518,0.6044 51.4106229,0.4599 51.6462607,0.3874 C50.7614896,0.55915 49.9932296,0.27465 49.4879518,0.24315 L49.9539962,0.1714 C49.6753207,0.21415 49.447054,0.2129 49.2145073,0.2124 L49.4805807,0.3904 C49.2071362,0.3594 48.9753029,0.35865 48.980534,0.28465 C48.6985296,0.4014 49.1964362,0.58065 48.6369451,0.74015 C48.272194,0.64965 47.5260473,0.83715 47.4000251,0.6009 C48.5473029,0.68115 47.2732896,0.3639 48.244374,0.32565 C48.0570051,0.3539 47.8287384,0.35265 47.5541051,0.3214 C47.5129696,0.29515 47.5928629,0.2724 47.6677629,0.2589 C46.5701807,0.0479 47.1631984,0.52615 46.0256696,0.52065 C46.1700007,0.3874 45.7617362,0.26815 45.5760318,0.29665 C46.0347051,0.29915 45.7955007,0.51865 45.3748718,0.62065 C44.6453696,0.51715 44.5821207,0.69765 44.2000118,0.68565 L44.6360962,0.7344 C44.4881984,0.8674 44.1236851,0.85015 43.6150784,0.89215 C43.5715651,0.7884 44.0768429,0.82065 43.8954184,0.7749 C43.3306962,1.0089 42.6195029,0.5329 41.8322207,0.6904 C41.4674696,0.60015 41.7970296,0.44015 41.4767429,0.37915 C40.5943496,0.5519 40.521114,0.19665 39.5935429,0.3394 C39.8608051,0.51815 39.9076473,0.47465 39.2547096,0.6489 L40.7793407,0.5229 L39.8006473,0.78315 C40.2609851,0.7859 40.7717318,0.67065 41.047554,0.70115 C40.5812718,0.84715 40.6290651,0.80265 40.8494851,0.95115 C40.2198496,0.6829 39.6011518,1.1074 38.873314,0.9264 L38.8954273,0.48315 C37.8014118,0.28565 36.9513562,0.7104 35.530634,0.59915 L35.9871673,0.67615 C35.7967073,0.85215 35.1100051,0.70065 34.6499051,0.77215 C34.6927051,0.6239 34.4052318,0.57015 34.2085896,0.4779 C34.2326051,0.5879 33.1687873,0.4679 33.039674,0.76365 L32.4052829,0.56865 C31.2582429,0.4889 31.0960784,0.99065 29.9932651,0.94015 C30.3254407,0.77915 29.8242051,0.67415 30.5629807,0.55915 C30.1946629,0.55765 29.8636762,0.53065 29.8577318,0.63315 C29.6427807,0.5404 28.8369518,0.83265 28.4983562,0.69215 C28.3430873,0.7569 28.2924407,0.91215 27.8789451,0.8999 C27.8337673,0.8699 27.8806096,0.82665 27.8806096,0.82665 C27.8789451,0.8999 27.2333784,0.9264 27.5945629,1.09015 C26.4603629,0.62815 24.4245096,1.12365 23.4370184,0.7269 C22.6333296,0.77665 21.6650984,0.8244 20.935834,0.8349 C20.9824384,0.79065 20.937974,0.7614 21.0758851,0.77665 C20.0696096,0.6389 20.4574251,1.20165 19.3120496,1.04815 C18.7271162,0.80865 19.9202851,0.9184 19.555534,0.8279 C19.3969362,0.34065 18.1735696,0.8944 17.4029318,0.61015 L17.5895873,0.58115 C17.0006118,0.41565 16.1522207,0.7659 15.189934,0.7309 C15.189934,0.7309 15.2367762,0.68815 15.1956407,0.65765 C14.5374718,0.9059 13.2915162,0.98815 12.3658473,1.05715 C12.6535584,0.8664 12.7862384,0.95615 12.6105207,0.7624 C12.1955984,0.7899 12.7320251,1.07365 11.9036073,1.1279 C11.6342051,1.0234 11.0366696,0.9324 10.9574896,0.72565 L11.7388273,0.7144 C11.3386473,0.4469 10.7273207,0.72365 10.3157273,0.67715 L10.3682762,0.56015 C9.17082733,0.59815 9.15418289,0.89265 7.86709178,0.87165 L8.00024733,0.96015 C7.29690067,1.2519 7.41055844,0.79615 6.70887622,1.0129 L6.49654067,0.7169 C6.03239844,0.7884 4.870854,1.00315 4.03863178,1.0589 C4.51014511,0.8394 5.48384511,0.7269 6.08661178,0.59665 C5.62651178,0.5944 4.52322289,0.6184 4.28354289,0.76465 C4.46900956,0.7359 4.70250733,0.6634 4.88559622,0.70915 C4.32134956,0.9419 3.57853178,1.05615 2.66189844,1.05115 C2.71516067,0.8634 2.47809622,0.7829 2.11168067,0.74415 C2.06578956,0.74015 2.01799622,0.7359 1.96830067,0.7314 C1.90005844,0.7284 1.82967622,0.72515 1.757154,0.7219 C1.60140956,0.7179 1.43734289,0.7134 1.26875844,0.70915 C0.925882889,0.7019 0.564698444,0.6944 0.215165111,0.6869 C0.193765111,1.5954 0.146685111,2.4489 -2.37777779e-05,3.06365 L0.0273206667,3.58415 C0.699518444,3.54565 1.31488733,3.5339 1.941194,3.53715 C2.328534,3.5404 2.71967844,3.5589 3.11866956,3.58115 C3.91712733,3.62565 4.74720956,3.6854 5.64363178,3.66915 C4.973574,3.22265 6.19503844,3.65665 6.07924067,3.1979 C6.51936733,3.16865 6.68700067,3.1764 6.72647178,3.2059 L8.05992956,3.4799 C8.376174,3.6134 7.64144067,3.5809 7.68186289,3.6839 C8.64557622,3.7189 8.08632289,3.87815 8.72380511,3.9999 C8.59302733,3.8359 9.058834,3.76515 9.60786289,3.82765 L8.83460956,3.61615 C10.1811451,3.37215 9.998294,4.00115 11.3557673,3.7594 L10.9263407,3.90365 C11.6230296,3.81865 13.4957673,3.90665 14.1784273,3.53815 C14.3015962,3.59115 14.4642362,3.71665 14.1577407,3.74965 C15.8221851,3.8049 17.862794,3.35765 19.1565429,3.58465 L19.0302829,3.69665 C19.3408207,3.66415 19.5707518,3.48615 19.9595184,3.5989 C19.9395451,3.64515 19.8344473,3.71065 19.9783029,3.7174 C20.1426073,3.67865 20.803154,3.5209 21.2145096,3.58615 L20.863074,3.7124 C22.4866207,3.85915 23.3545096,3.40515 24.7160251,3.32815 C24.7124584,3.6584 25.9900384,3.76565 26.6277584,3.81915 L26.6054073,3.8659 C28.4959784,3.90665 29.816834,3.59215 31.567354,3.46265 C32.6542362,3.8209 35.2486296,3.61265 36.9951073,3.81365 C36.7283207,3.75365 37.0386207,3.5564 37.3491584,3.52315 C37.7588496,3.59015 38.4821696,3.29415 38.4172562,3.5969 L38.2710229,3.59115 C38.5798962,3.88815 39.4223429,3.80915 40.0800362,3.8174 L40.1884629,3.42115 C41.9087851,3.99715 44.6957784,3.20965 45.6350007,3.72565 C46.0499229,3.62665 46.5642362,3.62765 46.9758296,3.52865 L46.9534784,3.74115 C48.1038473,3.7954 48.6780807,3.82215 50.099754,3.7714 L49.8099029,3.92315 C50.6119273,3.93715 50.8223607,3.3109 51.5623251,3.2984 L51.7848851,3.6154 C53.1839696,3.6104 54.600174,3.88865 55.982614,3.60115 C55.9597873,3.64765 55.9186518,3.7394 55.6920496,3.75215 C56.350694,3.7604 58.2396007,3.96665 58.0003962,3.53165 C58.0168029,3.8149 59.4439451,3.55915 60.1996029,3.4344 L60.0819029,3.6434 C60.7198607,3.3764 60.7400718,3.3034 61.6307873,3.2294 C61.841934,3.25665 61.8155407,3.39665 61.5354384,3.34315 C62.2385473,3.45265 62.0832784,3.1454 62.9359496,3.25665 L62.6182784,3.39015 C63.3418362,3.40615 63.2845318,3.33465 63.6828096,3.1789 C64.1376784,3.09515 65.0555007,3.23165 65.1622629,3.42065 C65.2597518,3.3054 65.6561273,3.1514 66.0824629,3.2059 C66.1400051,3.2774 65.984974,3.32165 65.9067451,3.34315 C67.1165584,3.48565 67.7057718,3.10015 68.537994,3.3054 C68.5553518,3.37465 68.6095651,3.4094 68.6785207,3.43015 C67.7174229,3.42515 66.9432184,3.41365 67.0155029,3.3984 C67.0155029,3.59115 67.7920851,3.6249 67.1743384,3.89115 C67.7977918,3.7459 68.863274,3.43015 69.6203584,3.5209 C69.6569762,3.5394 69.6926429,3.5579 69.7202251,3.5874 L69.6419962,3.60915 C69.8165251,3.62815 69.9729829,3.6104 70.1204051,3.5779 C70.3617496,3.60965 70.5151162,3.63315 70.7471873,3.6359 C70.8365918,3.7954 71.6374273,3.7219 72.0245296,3.7299 C71.9926673,3.51865 72.4993718,3.55265 72.0245296,3.37865 C72.086114,3.39365 71.9515318,3.4039 71.6940184,3.41265 C71.6357629,3.41865 71.5672829,3.4219 71.5290007,3.4344 C71.5366096,3.42915 71.5456451,3.4229 71.555394,3.4159 C71.3012096,3.41965 70.9697473,3.4244 70.5931073,3.4299 C70.8988896,3.3229 71.2184629,3.2329 71.6467007,3.3499 C71.8452451,3.2144 72.0637629,3.0749 72.1871696,3.00965 C72.7169384,3.30365 73.738194,3.46265 73.8803851,3.6439 C75.0623784,3.52565 76.6652384,3.5659 77.408294,3.1699 C77.7447496,3.1189 77.7949207,3.2834 77.9204673,3.34565 C77.7264407,3.3854 77.4955584,3.3794 77.3906984,3.43615 C78.0624207,3.33465 79.3816118,3.39665 79.5421118,3.12015 C80.3890762,3.2449 79.0660807,3.37465 80.2300029,3.32965 L80.0728318,3.41415 C82.362394,3.85615 83.7952429,2.7079 86.3337584,3.2754 C86.1575651,3.24065 86.0698251,3.22465 86.0339207,3.1784 C88.927914,3.42865 91.9976251,2.9434 94.8533362,3.34015 C95.6651096,3.4204 95.7530873,3.24365 96.2483784,3.10915 L96.424334,3.33565 L97.2715362,3.0744 C98.472314,2.88315 99.3513784,3.63015 100.871967,3.2684 L100.675801,3.1159 C101.221976,3.14465 102.405634,3.0259 102.314565,3.2014 C102.370443,3.1734 102.493612,3.0429 102.706898,3.12215 L102.723543,3.24065 L104.065323,3.03765 C105.105125,3.1234 103.902445,3.5079 105.419943,3.53115 C105.98419,3.48565 107.026607,3.18615 106.81451,3.1069 C106.586956,3.1009 106.232905,3.0329 106.216023,2.91415 L106.732001,2.8524 C106.825447,2.50315 107.222061,2.14565 105.955656,1.9019 L105.073025,2.1154 L104.788881,1.9459 L105.531698,1.9354 C105.110118,1.7759 104.842856,1.9169 104.544207,2.01365 C104.473112,1.92365 104.34923,1.86065 104.174225,1.82715 L103.307525,2.16065 C103.202665,2.0239 103.696292,1.88965 103.114687,1.81415 C102.709038,1.96915 103.504167,2.1204 102.83197,2.22215 C102.409914,2.06365 102.533083,1.93415 102.037792,2.06965 C101.968123,1.9799 102.072983,1.92265 102.269387,1.8829 C101.82831,1.9909 101.101898,1.92865 100.874345,2.11415 C100.434218,1.9184 99.3849051,2.16515 99.4284184,1.83465 C99.289794,1.91365 98.6513607,2.09415 98.2461873,2.1079 C98.9866273,1.71215 96.7296407,2.08465 96.9253318,1.6604 C96.3774918,2.01615 94.9463073,1.8184 93.976174,2.01565 C94.0303873,1.9874 94.1369118,1.93015 94.2225118,1.9484 C93.6763362,1.91865 93.5177384,1.81165 93.1667784,1.7444 C93.096634,2.03815 92.2461029,2.1054 91.7874296,2.28665 C91.1180851,2.00315 92.1940296,1.94165 91.983834,1.66915 C92.0175984,1.90765 90.8208629,1.90715 91.0484162,2.1054 C90.5362429,1.9299 90.6071007,2.0204 90.3436429,1.7769 C90.2537629,2.14415 89.8668984,1.8389 89.4422273,2.06465 C88.7013118,1.8834 89.2515296,1.7204 88.4376162,1.83215 C88.0502762,1.71965 88.7740718,1.5894 88.7740718,1.5894" id="Fill-58" fill="#FFFFFF" mask="url(#mask-7)"></path>
                    </g>
                    <path d="M71.6940898,3.412675 C71.7311831,3.407925 71.7518698,3.399175 71.8001387,3.397175 C71.7475898,3.378675 71.6976564,3.362925 71.6465342,3.349925 C71.6151476,3.372425 71.5832853,3.395675 71.5554653,3.415925 C71.6020698,3.414675 71.6505764,3.413675 71.6940898,3.412675" id="Fill-61" fill="#FFFFFF"></path>
                    <path d="M75.9113878,0.973225 L75.87691,0.968225 C75.9056811,0.976725 75.9315989,0.984975 75.9489567,0.998475 C75.92613,0.988225 75.92613,0.981475 75.9113878,0.973225" id="Fill-63" fill="#FFFFFF"></path>
                    <polygon id="Fill-65" fill="#FFFFFF" points="45.3279344 1.824775 45.3303122 1.877775 45.4722656 1.831275"></polygon>
                    <path d="M84.8707831,1.696725 C84.8876653,1.715225 84.9214298,1.734475 84.9882453,1.750725 C84.983252,1.736975 84.9323676,1.717475 84.8707831,1.696725" id="Fill-67" fill="#FFFFFF"></path>
                    <path d="M88.7407116,1.743975 L89.2883138,1.818975 C89.0514871,1.776475 88.8788604,1.755975 88.7407116,1.743975" id="Fill-69" fill="#FFFFFF"></path>
                    <path d="M91.7164291,1.848575 C91.753998,1.811575 91.7649358,1.783825 91.7746847,1.758325 C91.7723069,1.757575 91.7708802,1.757575 91.768978,1.756575 L91.7164291,1.848575 Z" id="Fill-71" fill="#FFFFFF"></path>
                    <path d="M44.4050238,2.09625 C44.3650771,2.09725 44.325606,2.10025 44.2904149,2.10575 C44.0210127,2.14675 44.2041016,2.1305 44.4050238,2.09625" id="Fill-73" fill="#FFFFFF"></path>
                    <path d="M58.4844167,1.6037 C58.3350922,1.64195 58.18767,1.6797 58.0319256,1.7032 C58.2823056,1.71945 58.4772833,1.7237 58.4844167,1.6037" id="Fill-75" fill="#FFFFFF"></path>
                    <path d="M28.6832522,2.35005 C28.6849167,2.3488 28.6832522,2.3483 28.6849167,2.3463 L28.5879033,2.3463 L28.6832522,2.35005 Z" id="Fill-77" fill="#FFFFFF"></path>
                    <path d="M57.3771569,1.69965 C57.6277747,1.74165 57.8372569,1.73265 58.0317591,1.7034 C57.8263191,1.68915 57.5842613,1.66765 57.3771569,1.69965" id="Fill-79" fill="#FFFFFF"></path>
                    <path d="M104.613306,1.94415 L104.756686,1.9529 C104.754308,1.9389 104.76263,1.92765 104.773568,1.9189 L104.613306,1.94415 Z" id="Fill-81" fill="#FFFFFF"></path>
                    <path d="M104.773544,1.919025 L104.932855,1.894025 C104.85962,1.894025 104.796371,1.895775 104.773544,1.919025" id="Fill-83" fill="#FFFFFF"></path>
                    <path d="M105.267908,1.841 L104.932879,1.894 C105.048914,1.89475 105.192057,1.90125 105.267908,1.841" id="Fill-85" fill="#FFFFFF"></path>
                    <path d="M100.674184,1.84675 L100.629006,1.92325 C100.653497,1.90725 100.669428,1.88275 100.674184,1.84675" id="Fill-87" fill="#FFFFFF"></path>
                    <path d="M99.4769489,1.86885 C99.76252,1.88635 100.193611,2.0321 100.591651,1.9841 L100.628982,1.92335 C100.441851,2.03685 99.7482533,1.73985 99.4769489,1.86885" id="Fill-89" fill="#FFFFFF"></path>
                    <path d="M94.4805958,0.9239 L95.4837802,0.98515 C95.3083002,0.9034 95.0778936,0.7939 95.5339513,0.7744 C94.2694491,0.5314 95.7947936,0.95665 94.4805958,0.9239" id="Fill-91" fill="#FFFFFF"></path>
                    <path d="M91.3704387,0.805725 C91.9094809,0.767975 91.3642564,0.687475 91.3927898,0.641225 C91.0506276,0.715725 90.9681187,0.734475 91.3704387,0.805725" id="Fill-93" fill="#FFFFFF"></path>
                    <path d="M68.8938284,0.805 L68.9480418,0.613 C68.532644,0.6405 68.9439996,0.6875 68.8938284,0.805" id="Fill-95" fill="#FFFFFF"></path>
                    <polygon id="Fill-97" fill="#FFFFFF" points="64.5972078 1.796575 65.00143 1.915825 65.1937922 1.739825"></polygon>
                    <polygon id="Fill-99" fill="#FFFFFF" points="62.0589776 0.43 62.240402 0.4025 61.5475176 0.472"></polygon>
                    <path d="M24.3097818,0.498125 L24.4353284,0.734375 C24.7159062,0.692125 24.7751129,0.426625 24.3097818,0.498125" id="Fill-101" fill="#FFFFFF"></path>
                    <path d="M8.01318244,0.73885 C7.83580022,0.6206 7.37736467,0.5446 7.09488467,0.66085 C7.46130022,0.6771 7.82652689,0.7691 8.01318244,0.73885" id="Fill-103" fill="#FFFFFF"></path>
                    <polygon id="Fill-105" fill="#FFFFFF" points="41.0057764 3.71955 40.6781187 3.79855 41.2956276 3.7328"></polygon>
                </g>
            </g>
        </g>
    </g>
</svg>