<?xml version="1.0" encoding="UTF-8"?>
<svg width="107px" height="25px" viewBox="0 0 107 25" version="1.1" xmlns="http://www.w3.org/2000/svg" xmlns:xlink="http://www.w3.org/1999/xlink">
    <title>line7</title>
    <g id="line7" stroke="none" stroke-width="1" fill="none" fill-rule="evenodd">
        <path d="M2.00988142,11 L2,14.9876619 L6.99011858,15 L7,11.0123381 L2.00988142,11 Z M9.00988142,11 L9,14.9876619 L13.9901186,15 L14,11.0123381 L9.00988142,11 Z M16.0098814,11 L16,14.9876619 L20.9901186,15 L21,11.0123381 L16.0098814,11 Z M23.0098814,11 L23,14.9876619 L27.9901186,15 L28,11.0123381 L23.0098814,11 Z M30.0098814,11 L30,14.9876619 L34.9901186,15 L35,11.0123381 L30.0098814,11 Z M37.0098814,11 L37,14.9876619 L41.9901186,15 L42,11.0123381 L37.0098814,11 Z M44.0098814,11 L44,14.9876619 L48.9901186,15 L49,11.0123381 L44.0098814,11 Z M51.0098814,11 L51,14.9876619 L55.9901186,15 L56,11.0123381 L51.0098814,11 Z M59.0098814,11 L59,14.9876619 L63.9901186,15 L64,11.0123381 L59.0098814,11 Z M66.0098814,11 L66,14.9876619 L70.9901186,15 L71,11.0123381 L66.0098814,11 Z M73.0098814,11 L73,14.9876619 L77.9901186,15 L78,11.0123381 L73.0098814,11 Z M80.0098814,11 L80,14.9876619 L84.9901186,15 L85,11.0123381 L80.0098814,11 Z M87.0098814,11 L87,14.9876619 L91.9901186,15 L92,11.0123381 L87.0098814,11 Z M94.0098814,11 L94,14.9876619 L98.9901186,15 L99,11.0123381 L94.0098814,11 Z M101.009881,11 L101,14.9876619 L105.990119,15 L106,11.0123381 L101.009881,11 Z" id="Line" fill="#E89A4F" fill-rule="nonzero"></path>
    </g>
</svg>