<?xml version="1.0" encoding="UTF-8"?>
<svg width="107px" height="25px" viewBox="0 0 107 25" version="1.1" xmlns="http://www.w3.org/2000/svg" xmlns:xlink="http://www.w3.org/1999/xlink">
    <title>line6</title>
    <g id="line6" stroke="none" stroke-width="1" fill="none" fill-rule="evenodd">
        <g id="Group" transform="translate(0.000000, 6.000000)" fill="#E89A4F">
            <path d="M97.2947867,9 L2.70521327,9 C1.21113744,9 0,7.88891304 0,6.51826087 L0,6.48173913 C0,5.11108696 1.21113744,4 2.70521327,4 L97.2947867,4 C98.7888626,4 100,5.11108696 100,6.48173913 L100,6.51826087 C100,7.88891304 98.7888626,9 97.2947867,9" id="Fill-1"></path>
            <path d="M106.375343,5.45617953 C107.208219,5.9201442 107.208219,7.08005588 106.375343,7.54402055 L101.624596,10.1903549 L96.8738491,12.8366893 C96.0409732,13.300654 95,12.7208155 95,11.7928861 L95,6.49998276 L95,1.20731397 C95,0.279384625 96.0409732,-0.300688497 96.8738491,0.163276176 L101.624596,2.80984513 L106.375343,5.45617953 Z" id="Fill-5"></path>
        </g>
    </g>
</svg>