<?xml version="1.0" encoding="UTF-8"?>
<svg width="107px" height="25px" viewBox="0 0 107 25" version="1.1" xmlns="http://www.w3.org/2000/svg" xmlns:xlink="http://www.w3.org/1999/xlink">
    <title>line10</title>
    <g id="line10" stroke="none" stroke-width="1" fill="none" fill-rule="evenodd">
        <path d="M102.8,9 C104.196162,9 105.401417,9.81752723 105.963163,10.9999802 L106,11 L106.000939,11.0822382 C106.193188,11.5156335 106.3,11.9953455 106.3,12.5 C106.3,14.4329655 104.732966,16 102.8,16 C101.037122,16 99.5786089,14.696608 99.3355811,13.0009431 L8.9644189,13.0009431 C8.72139109,14.696608 7.26287841,16 5.5,16 C3.56703448,16 2,14.4329655 2,12.5 C2,10.5670345 3.56703448,9 5.5,9 C6.89616241,9 8.10141736,9.81752723 8.66316341,10.9999802 L99.6368366,10.9999802 C100.198583,9.81752723 101.403838,9 102.8,9 Z" id="Combined-Shape" fill="#E89A4F" fill-rule="nonzero"></path>
    </g>
</svg>