<?xml version="1.0" encoding="UTF-8"?>
<svg width="109px" height="25px" viewBox="0 0 109 25" version="1.1" xmlns="http://www.w3.org/2000/svg" xmlns:xlink="http://www.w3.org/1999/xlink">
    <title>line2</title>
    <defs>
        <polygon id="path-1" points="0 0.420186064 109 0.420186064 109 11.4201861 0 11.4201861"></polygon>
    </defs>
    <g id="line2" stroke="none" stroke-width="1" fill="none" fill-rule="evenodd">
        <g id="Group-3" transform="translate(0.000000, 7.000000)">
            <mask id="mask-2" fill="white">
                <use xlink:href="#path-1"></use>
            </mask>
            <g id="Clip-2"></g>
            <path d="M21.8924061,1.73809297 C31.7812696,1.01261522 43.8583559,1.95774412 53.8419244,1.29879067 C65.8211326,0.420186064 78.8001134,0.420186064 90.780542,0.420186064 C90.780542,0.85924646 89.782234,1.51819991 90.780542,1.73809297 C94.7737741,2.39680452 94.7737741,3.27565103 94.7737741,4.15425564 C94.7737741,4.59379985 91.7790941,4.15425564 92.7766699,4.59379985 C89.782234,4.59379985 84.7872766,4.813451 87.7851297,5.25226949 C88.7836819,5.6920556 92.7766699,5.25226949 93.7740016,5.91122294 C94.7737741,6.5704183 92.7766699,7.22937176 93.7740016,7.8878414 L97.7694305,7.8878414 C98.7660299,8.32786942 96.7706343,9.20647403 97.7694305,9.20647403 C100.76411,9.64577633 104.758319,9.42588327 108.749354,9.42588327 C108.749354,9.86542748 109.749859,10.3044879 107.752999,10.5243809 C72.8090448,10.9636832 36.8672707,11.8425297 1.92429284,11.1828506 C-2.0686952,10.9636832 0.926961151,10.0850786 3.92164116,9.42588327 C2.92406538,9.64577633 2.92406538,8.98658097 1.92429284,9.20647403 C1.92429284,8.54727867 3.92164116,7.44926482 7.91584962,7.22937176 L4.92019328,7.22937176 C3.92164116,7.00996251 4.92019328,6.5704183 4.92019328,6.13135791 C5.91972173,6.13135791 6.91705342,6.13135791 6.91705342,5.91122294 L6.91705342,5.03286024 L2.92406538,5.03286024 C3.92164116,5.03286024 4.92019328,5.03286024 4.92019328,4.813451 L4.92019328,3.93412067 C6.91705342,3.71495334 9.91173343,4.15425564 11.9100581,3.93412067 L11.9100581,3.27565103 C9.91173343,3.05575797 6.91705342,3.27565103 4.92019328,3.27565103 C5.91972173,3.05575797 5.91972173,2.83634873 5.91972173,2.39680452 C8.91440174,2.17666956 11.9100581,2.83634873 14.9035177,2.17666956 L11.9100581,2.17666956 C13.9059419,1.0784138 18.8967498,1.95774412 21.8924061,1.73809297" id="Fill-1" fill="#E89A4F" mask="url(#mask-2)"></path>
        </g>
    </g>
</svg>