<?xml version="1.0" encoding="UTF-8"?>
<svg width="107px" height="25px" viewBox="0 0 107 25" version="1.1" xmlns="http://www.w3.org/2000/svg" xmlns:xlink="http://www.w3.org/1999/xlink">
    <title>line3</title>
    <g id="line3" stroke="none" stroke-width="1" fill="none" fill-rule="evenodd">
        <path d="M103.5,9 C105.008628,9 106.286668,10.0215071 106.723033,11.4323646 L107,11.4322697 L107,13.4322697 L106.761938,13.4324476 C106.367382,14.9127707 105.056403,16 103.5,16 C101.943597,16 100.632618,14.9127707 100.238062,13.4324476 L7.87441821,13.4324476 C7.46625702,14.9127707 6.11007241,16 4.5,16 C2.56703448,16 1,14.4329655 1,12.5 C1,10.5670345 2.56703448,9 4.5,9 C6.06065,9 7.38275953,10.0215071 7.83417205,11.4323646 L100.276967,11.4323646 C100.713332,10.0215071 101.991372,9 103.5,9 Z" id="Combined-Shape" fill="#E89A4F" fill-rule="nonzero"></path>
    </g>
</svg>