<?xml version="1.0" encoding="UTF-8"?>
<svg width="107px" height="25px" viewBox="0 0 107 25" version="1.1" xmlns="http://www.w3.org/2000/svg" xmlns:xlink="http://www.w3.org/1999/xlink">
    <title>line5</title>
    <g id="line5" stroke="none" stroke-width="1" fill="none" fill-rule="evenodd">
        <path d="M43.2417543,5.03449543 C45.3773652,4.79484599 50.4164093,5.84352419 52.9823757,6.95115813 C53.7709251,7.29154607 54.5243673,7.64819127 55.2991648,8.0431505 L55.9408754,8.37517708 L57.1647694,9.03794931 L58.3006453,9.66304624 L59.126249,10.1087838 C59.2578708,10.1788309 59.386749,10.2468595 59.5132528,10.3130232 L60.2467328,10.6888589 C61.3130661,11.2227387 62.2468325,11.6304951 63.3169942,12.0242878 L64.0535937,12.2859785 C64.1807119,12.3296591 64.3102519,12.373475 64.4425826,12.4175801 C76.9350664,16.5812565 90.6650921,17.1032764 102.346229,13.6354499 C103.436182,13.3118712 104.585094,13.9230879 104.912397,15.0006406 C105.239699,16.0781934 104.621448,17.2140349 103.531496,17.5376137 C91.0003538,21.2577846 76.4004818,20.7026929 63.1260114,16.2783847 C60.9271568,15.5455185 59.3999879,14.8764369 57.2945357,13.7609655 L56.3531498,13.254089 L54.5157413,12.2455408 L53.891716,11.9126045 L53.4104705,11.6644063 C52.7113284,11.3080129 52.0371397,10.9888828 51.3332807,10.6850526 C50.7044275,10.4135996 49.8280845,10.1358285 48.8845404,9.88875954 L48.2475337,9.7290016 C46.4256851,9.29154357 44.5070145,8.99297991 43.7065545,9.08280423 C39.6520804,9.5377806 37.0919161,10.466942 34.7451249,12.0258566 L34.3714784,12.2810171 L33.85401,12.6562318 L32.0918969,13.9684731 C30.1055581,15.404772 28.4357553,16.1262179 26.0890989,16.307409 C24.1184691,16.4595662 23.069923,15.6070907 21.7716972,13.5642574 L21.4671411,13.0716192 L20.9748478,12.2415764 L20.7394958,11.8569887 L20.5305712,11.532033 L20.3455108,11.2625998 C20.0845367,10.8980372 19.8954527,10.7069939 19.7393283,10.6270579 C18.1759635,9.82661194 15.7891832,10.5094623 12.9942905,12.2406245 L12.4655669,12.5773961 C11.6656119,13.1006623 10.8354278,13.7047011 9.98425387,14.3798353 L9.41379641,14.8403512 C9.3182357,14.9188239 9.22244121,14.9981477 9.1264256,15.0783095 L8.54778003,15.5692286 L7.96443615,16.0796201 L7.37700233,16.6088467 C7.27878967,16.6985853 7.18043193,16.7890822 7.08194181,16.8803241 L6.48951373,17.4366087 C5.66955218,18.2167992 4.36509439,18.1921206 3.5759257,17.3814876 C2.78675701,16.5708546 2.81171955,15.2812373 3.6316811,14.5010467 C6.16082849,12.094572 8.69765217,10.0352741 11.2863542,8.51524939 C15.1638948,6.23844923 18.6693302,5.49093827 21.6345813,7.00915283 C22.7469269,7.578676 23.39715,8.32754172 24.3239252,9.83947878 L24.988207,10.9543255 L25.2973054,11.4540013 L25.4696411,11.7122646 L25.6220405,11.9206554 C25.6701888,11.9827603 25.7160212,12.0379832 25.7605445,12.0877542 L25.8714969,12.2095338 C25.8757426,12.2155733 25.878447,12.2205154 25.8797418,12.224563 L25.8784816,12.2347615 L26.0594355,12.218266 C27.2947167,12.0816851 28.1984341,11.6974558 29.3808481,10.877068 L29.7895148,10.5824579 L31.6491376,9.20090506 L32.1051659,8.87535214 C35.0866659,6.81732204 38.3367541,5.58491435 43.2417543,5.03449543 Z" id="Path-7" fill="#E89A4F" fill-rule="nonzero"></path>
    </g>
</svg>