<?xml version="1.0" encoding="UTF-8"?>
<svg width="50px" height="50px" viewBox="0 0 50 50" version="1.1" xmlns="http://www.w3.org/2000/svg" xmlns:xlink="http://www.w3.org/1999/xlink">
    <title>shape6</title>
    <g id="shape6" stroke="none" stroke-width="1" fill="none" fill-rule="evenodd">
        <g id="like" transform="translate(3.000000, 5.000000)" fill="#BADADA" fill-rule="nonzero">
            <path d="M33.046875,0.75 C30.6050098,0.75 28.3662598,1.52911504 26.3929395,3.06575221 C24.5010938,4.53893805 23.2415332,6.41530973 22.5,7.77973451 C21.7584668,6.41522124 20.4989063,4.53893805 18.6070605,3.06575221 C16.6337402,1.52911504 14.3949902,0.75 11.953125,0.75 C5.13878906,0.75 0,6.36212389 0,13.8043363 C0,21.8445133 6.41100586,27.3454867 16.116416,35.6731858 C17.764541,37.0874336 19.6326563,38.6904425 21.5743359,40.4000885 C21.8302734,40.6257522 22.1589844,40.75 22.5,40.75 C22.8410156,40.75 23.1697266,40.6257522 23.4256641,40.400177 C25.3675195,38.6902655 27.2355469,37.0873451 28.8846387,35.6723009 C38.5889941,27.3454867 45,21.8445133 45,13.8043363 C45,6.36212389 39.8612109,0.75 33.046875,0.75 Z" id="Path"></path>
        </g>
    </g>
</svg>