<?xml version="1.0" encoding="UTF-8"?>
<svg width="50px" height="50px" viewBox="0 0 50 50" version="1.1" xmlns="http://www.w3.org/2000/svg" xmlns:xlink="http://www.w3.org/1999/xlink">
    <title>shape2</title>
    <g id="../../img/src/sidebarItems/shape2.svg" stroke="none" stroke-width="1" fill="none" fill-rule="evenodd">
        <path d="M21.6223929,7.20162903 C23.3427457,5.30110743 26.5669555,2.47914206 28.9096006,4.99589735 C29.8505879,6.00684935 30.322872,7.50984611 31.1605956,8.62935066 C33.3347476,11.5349105 36.9435592,13.0802057 39.6000603,15.4879072 C42.5919993,18.1996161 45.3374408,21.2960199 47.3726174,24.8490862 C47.3726174,24.8490862 50.911651,31.9179321 41.1788247,37.1544148 C39.1409383,38.250966 37.1834756,40.1085878 35.9474076,42.1131515 C35.3943126,43.0102385 35.0280989,43.8529992 34.248443,44.5836992 C31.7649837,46.9115149 27.114534,47.5130143 23.9895232,46.5793421 C20.7787658,45.6200102 17.699822,44.2541325 14.6928822,42.7558467 C12.7822609,41.803932 10.6986945,40.9497448 9.03379639,39.560212 C5.55031422,36.6527477 3.71547124,31.9950114 2.75522481,27.5983825 C2.21384016,25.1192147 1.59629002,22.1752655 2.35078318,19.6784566 C3.40055067,16.2042739 7.30386241,17.1723261 9.83329203,15.5547628 C13.8330929,12.9929026 18.4047641,10.7564995 21.6223929,7.20162903 Z" id="../../img/src/sidebarItems/shape2.svg" fill="#BADADA"></path>
    </g>
</svg>