<?xml version="1.0" encoding="UTF-8"?>
<svg width="50px" height="50px" viewBox="0 0 50 50" version="1.1" xmlns="http://www.w3.org/2000/svg" xmlns:xlink="http://www.w3.org/1999/xlink">
    <title>shape1</title>
    <g id="shape1" stroke="none" stroke-width="1" fill="none" fill-rule="evenodd">
        <path d="M15.7161762,29.0709138 C22.1952751,28.6202805 28.1873031,30.9919374 31.5101065,36.5763488 C32.9698961,39.0295401 35.5797045,42.4731546 38.9354773,41.9459529 C40.9342827,41.6320572 42.8916982,39.4816748 44.4084136,38.1412082 C48.2361958,34.7583402 51.4264096,27.6313586 49.1918368,22.7402204 C47.9450443,20.0114752 45.6673028,17.7994224 42.9289372,16.4772028 C40.0229963,15.0741418 36.4446201,15.5695844 33.3750177,14.5311183 C27.2092476,12.4451781 20.7820934,7.69770665 13.9272846,9.33844148 C10.6595094,10.1205247 10.0444742,11.4080979 8.58598906,13.9607242 C7.7785922,15.3736016 6.89517575,16.9915854 5.55054214,17.9954051 C3.25074191,19.7118999 1.06206549,20.5288605 1.00063312,23.8658797 C0.939793724,27.1870772 5.27706135,29.7024009 8.24953417,30.0436673 C8.82436563,30.1097263 9.40809174,30.0993324 9.99691745,30.0429744 C11.8924263,29.8613121 13.8405914,29.201415 15.7161762,29.0709138 Z" id="Fill-1" fill="#BADADA"></path>
    </g>
</svg>