<?xml version="1.0" encoding="UTF-8"?>
<svg width="50px" height="50px" viewBox="0 0 50 50" version="1.1" xmlns="http://www.w3.org/2000/svg" xmlns:xlink="http://www.w3.org/1999/xlink">
    <title>shape3</title>
    <g id="shape3" stroke="none" stroke-width="1" fill="none" fill-rule="evenodd">
        <path d="M30.3853078,7.11503169 C31.3607993,7.31031779 32.331216,7.7206658 33.2389354,8.08223348 C37.0942466,9.61749534 42.6157018,11.4315961 45.2710881,14.8333646 C45.2710881,14.8333646 52.5796619,20.7196337 46.7329338,26.605738 C36.972126,36.4323368 22.2246727,44.2057123 8.08405725,41.4318257 C2.9685794,40.4283683 0.135086934,37.0804889 1.23564559,31.8133673 C2.34078787,26.523174 5.69042811,19.2761645 9.5517962,15.5574887 C11.2097552,13.9607571 13.1890583,13.0485979 15.4911788,12.956146 C18.1064585,12.8510047 21.3518215,13.9139543 23.5157788,11.8663343 C24.8479737,10.6056265 25.7782838,8.45550184 27.3642145,7.51582139 C28.3325032,6.94199337 29.3618521,6.91018728 30.3853078,7.11503169" id="Fill-1" fill="#BADADA"></path>
    </g>
</svg>