<?xml version="1.0" encoding="UTF-8"?>
<svg width="50px" height="50px" viewBox="0 0 50 50" version="1.1" xmlns="http://www.w3.org/2000/svg" xmlns:xlink="http://www.w3.org/1999/xlink">
    <title>shape7</title>
    <g id="shape7" stroke="none" stroke-width="1" fill="none" fill-rule="evenodd">
        <path d="M45.6074115,24.9360246 L39.3331115,22.623192 C34.2543682,20.7503905 30.2502025,16.7462248 28.376215,11.6668885 L26.0627893,5.39258852 C25.9756133,5.15715402 25.7508534,5 25.499407,5 C25.2479605,5 25.0232006,5.15715402 24.9360246,5.39258852 L22.6225989,11.6662954 C20.7497975,16.7456318 16.7456318,20.7497975 11.6657024,22.623192 L5.39258852,24.9360246 C5.15596795,25.0226076 5,25.2479605 5,25.499407 C5,25.7508534 5.15656098,25.9762063 5.39258852,26.0627893 L11.6662954,28.376808 C16.7450388,30.2496095 20.7492045,34.2537752 22.6225989,39.3331115 L24.9360246,45.6074115 C25.0232006,45.843439 25.2479605,46 25.499407,46 C25.7508534,46 25.9762063,45.843439 26.0627893,45.6074115 L28.376808,39.3325185 C30.2496095,34.2537752 34.2531821,30.2502025 39.3325185,28.376808 L45.6074115,26.0627893 C45.843439,25.9762063 46,25.7508534 46,25.499407 C46,25.2479605 45.8440321,25.0226076 45.6074115,24.9360246 Z" id="Path" fill="#BADADA" fill-rule="nonzero"></path>
    </g>
</svg>