<?xml version="1.0" encoding="UTF-8"?>
<svg width="24px" height="24px" viewBox="0 0 24 24" version="1.1" xmlns="http://www.w3.org/2000/svg" xmlns:xlink="http://www.w3.org/1999/xlink">
    <title>canva/canva-複製</title>
    <defs>
        <rect id="path-1" x="0" y="0" width="24" height="24"></rect>
    </defs>
    <g id="canva/canva-複製" stroke="none" stroke-width="1" fill="none" fill-rule="evenodd">
        <g id="edit-/-copy">
            <mask id="mask-2" fill="white">
                <use xlink:href="#path-1"></use>
            </mask>
            <g id="edit-/-copy-(Background/Mask)"></g>
            <path d="M10,2 L20,2 C21.1522846,2 22,2.84771526 22,4 L22,14 C22,15.1522846 21.1522846,16 20,16 L16,16 L16,20 C16,21.1522846 15.1522846,22 14,22 L4,22 C2.84771526,22 2,21.1522846 2,20 L2,10 C2,8.84771538 2.84771526,8 4,8 L8,8 L8,4 C8,2.84771526 8.84771538,2 10,2 L10,2 Z M8,10 L4,10 L4,20 L14,20 L14,16 L10,16 C8.84771538,16 8,15.1522846 8,14 L8,10 L8,10 Z M10,4 L10,14 L20,14 L20,4 L10,4 L10,4 Z" fill="#555555" mask="url(#mask-2)"></path>
        </g>
    </g>
</svg>