<?xml version="1.0" encoding="UTF-8"?>
<svg width="24px" height="24px" viewBox="0 0 24 24" version="1.1" xmlns="http://www.w3.org/2000/svg" xmlns:xlink="http://www.w3.org/1999/xlink">
    <title>下移一層</title>
    <g id="下移一層" stroke="none" stroke-width="1" fill="none" fill-rule="evenodd">
        <g id="Group-2-Copy" transform="translate(3.000000, 3.000000)" fill="#555555" fill-rule="nonzero">
            <g id="Group">
                <path d="M8.65807804,0.9951338 C9.13519561,0.7706729 9.68799074,0.74822681 10.1802438,0.92779553 L10.3826777,1.01472782 L17.9487431,4.76570555 C18.9039694,5.21509367 19.2958954,6.34441277 18.7581861,7.25589182 C18.6090813,7.50864168 18.3996989,7.72039152 18.1624787,7.87023161 L18.0170656,7.95253922 L12,11.1682928 L12,8.62877716 L12.533,8.628 L12.5286528,8.61805223 L16.71,6.383 L9.499,2.809 L2.29,6.383 L6.4713453,8.61805124 L6.466,8.628 L7,8.62877716 L7,11.1682928 L1.0042142,7.96359762 C0.0602703648,7.48788236 -0.295939437,6.34565824 0.270106935,5.4499522 C0.426529331,5.20243098 0.641548548,4.9972545 0.884174264,4.85340258 L1.03281455,4.77460221 L8.65807804,0.9951338 Z" id="Path"></path>
                <polygon id="Line" points="10.5 6 10.5 18 8.5 18 8.5 6"></polygon>
            </g>
            <polygon id="Path-Copy" transform="translate(9.500000, 16.221089) rotate(-180.000000) translate(-9.500000, -16.221089) " points="5.34920863 17.2407434 9.5 13.6829222 13.6507914 17.2407434 12.3492086 18.7592566 9.5 16.317 6.65079137 18.7592566"></polygon>
        </g>
    </g>
</svg>