<?xml version="1.0" encoding="UTF-8"?>
<svg width="24px" height="24px" viewBox="0 0 24 24" version="1.1" xmlns="http://www.w3.org/2000/svg" xmlns:xlink="http://www.w3.org/1999/xlink">
    <title>canva/canva-下移最後</title>
    <g id="canva/canva-下移最後" stroke="none" stroke-width="1" fill="none" fill-rule="evenodd">
        <g id="Group" transform="translate(3.000000, 3.000000)">
            <path d="M1.08703221,6.7105695 L2.2323374,8.35016734 L2.215,8.362 L6.507,10.959 L7,10.9599729 L7,13.5944648 L1.0042142,9.96359762 C0.0602703648,9.48788236 -0.295939437,8.34565824 0.270106935,7.4499522 C0.35543885,7.31492384 0.449819648,7.21440163 0.582152642,7.09963157 L0.764355495,6.94980762 L1.08703221,6.7105695 Z M16.7665211,8.34936785 L17.9100394,6.70852407 L18.1255106,6.86518374 L18.31103,7.01012077 C18.5024244,7.16629716 18.6232282,7.28116675 18.7298931,7.4499522 C19.2689848,8.30300557 18.9715631,9.37965811 18.184984,9.85889362 L18.0633719,9.92619569 L12,13.5944648 L12,10.9599729 L12.492,10.959 L16.786,8.363 L16.7665211,8.34936785 Z" id="Shape" fill="#555555" fill-rule="nonzero"></path>
            <path d="M6,6.95997289 L6,7.82071185 L1.45425863,5.07059146 C1.02475099,4.85413436 0.873062136,4.36772813 1.11545209,3.98417273 C1.19972879,3.85081412 1.32521978,3.74194415 1.47693006,3.67057175 L9.08377413,0.0919169499 C9.34428092,-0.0306389833 9.65569614,-0.0306389833 9.91620293,0.0919169499 L17.523047,3.67057175 C17.959384,3.87584737 18.1267595,4.35813322 17.8968907,4.74778735 C17.8169674,4.88326642 17.6950542,4.99533136 17.5457184,5.07059146 L13,7.82071185 L13,6.95997289" id="Path" stroke="#555555" stroke-width="2"></path>
            <polyline id="Path" stroke="#555555" stroke-width="2" transform="translate(9.500000, 17.500000) rotate(-180.000000) translate(-9.500000, -17.500000) " points="6 19 9.5 16 13 19"></polyline>
            <polygon id="Line" fill="#555555" fill-rule="nonzero" points="10.5 4 10.5 18 8.5 18 8.5 4"></polygon>
        </g>
    </g>
</svg>