<?xml version="1.0" encoding="UTF-8"?>
<svg width="24px" height="24px" viewBox="0 0 24 24" version="1.1" xmlns="http://www.w3.org/2000/svg" xmlns:xlink="http://www.w3.org/1999/xlink">
    <title>canva/canva-垃圾桶</title>
    <g id="canva/canva-垃圾桶" stroke="none" stroke-width="1" fill="none" fill-rule="evenodd">
        <g id="basic-/-trash_full" transform="translate(3.000000, 2.000000)" fill="#555555">
            <path d="M6,0 C4.89699996,0 4,0.896999955 4,2 L4,3 L0,3 L0,5 L2,5 L2,18 C2,19.103 2.89699996,20 4,20 L14,20 C15.103,20 16,19.103 16,18 L16,5 L18,5 L18,3 L14,3 L14,2 C14,0.896999955 13.103,0 12,0 L6,0 Z M12,2 L12,3 L6,3 L6,2 L12,2 Z M4,18 L4,5 L14,5 L14,18 L4,18 Z M8,7 L8,16 L6,16 L6,7 L8,7 Z M12,7 L12,16 L10,16 L10,7 L12,7 Z"></path>
        </g>
    </g>
</svg>