<?xml version="1.0" encoding="UTF-8"?>
<svg width="24px" height="24px" viewBox="0 0 24 24" version="1.1" xmlns="http://www.w3.org/2000/svg" xmlns:xlink="http://www.w3.org/1999/xlink">
    <title>canva/canva-垃圾桶</title>
    <defs>
        <rect id="path-1" x="0" y="0" width="24" height="24"></rect>
    </defs>
    <g id="canva/canva-垃圾桶" stroke="none" stroke-width="1" fill="none" fill-rule="evenodd">
        <g id="basic-/-trash_full">
            <mask id="mask-2" fill="white">
                <use xlink:href="#path-1"></use>
            </mask>
            <g id="basic-/-trash_full-(Background/Mask)"></g>
            <path d="M9,2 C7.89699996,2 7,2.89699996 7,4 L7,5 L3,5 L3,7 L5,7 L5,20 C5,21.103 5.89699996,22 7,22 L17,22 C18.103,22 19,21.103 19,20 L19,7 L21,7 L21,5 L17,5 L17,4 C17,2.89699996 16.103,2 15,2 L9,2 Z M15,4 L15,5 L9,5 L9,4 L15,4 Z M7,20 L7,7 L17,7 L17,20 L7,20 Z M11,9 L11,18 L9,18 L9,9 L11,9 Z M15,9 L15,18 L13,18 L13,9 L15,9 Z" fill="#555555" mask="url(#mask-2)"></path>
        </g>
    </g>
</svg>