<?xml version="1.0" encoding="UTF-8"?>
<svg width="24px" height="24px" viewBox="0 0 24 24" version="1.1" xmlns="http://www.w3.org/2000/svg" xmlns:xlink="http://www.w3.org/1999/xlink">
    <title>canva/canva-上移一層</title>
    <g id="canva/canva-上移一層" stroke="none" stroke-width="1" fill="none" fill-rule="evenodd">
        <g id="Group-2" transform="translate(12.500000, 12.000000) scale(1, -1) translate(-12.500000, -12.000000) translate(4.000000, 3.000000)" fill="#555555" fill-rule="nonzero">
            <g id="Group">
                <path d="M7.65807804,-0.00486619993 C8.13519561,-0.2293271 8.68799074,-0.25177319 9.18024382,-0.0722044699 L9.38267767,0.0147278195 L16.9487431,3.76570555 C17.9039694,4.21509367 18.2958954,5.34441277 17.7581861,6.25589182 C17.6090813,6.50864168 17.3996989,6.72039152 17.1624787,6.87023161 L17.0170656,6.95253922 L11,10.1682928 L11,7.62877716 L11.533,7.628 L11.5286528,7.61805223 L15.71,5.383 L8.499,1.809 L1.29,5.383 L5.4713453,7.61805124 L5.466,7.628 L6,7.62877716 L6,10.1682928 L0.00421419655,6.96359762 C-0.939729635,6.48788236 -1.29593944,5.34565824 -0.729893065,4.4499522 C-0.573470669,4.20243098 -0.358451452,3.9972545 -0.115825736,3.85340258 L0.0328145507,3.77460221 L7.65807804,-0.00486619993 Z" id="Path"></path>
                <polygon id="Line" points="9.5 5 9.5 17 7.5 17 7.5 5"></polygon>
            </g>
            <polygon id="Path-Copy" transform="translate(8.500000, 15.221089) rotate(-180.000000) translate(-8.500000, -15.221089) " points="4.34920863 16.2407434 8.5 12.6829222 12.6507914 16.2407434 11.3492086 17.7592566 8.5 15.317 5.65079137 17.7592566"></polygon>
        </g>
    </g>
</svg>