<?xml version="1.0" encoding="UTF-8"?>
<svg width="24px" height="24px" viewBox="0 0 24 24" version="1.1" xmlns="http://www.w3.org/2000/svg" xmlns:xlink="http://www.w3.org/1999/xlink">
    <title>線條</title>
    <defs>
        <rect id="path-1" x="0" y="0" width="24" height="24"></rect>
    </defs>
    <g id="線條" stroke="none" stroke-width="1" fill="none" fill-rule="evenodd">
        <circle id="Oval" fill="#E89A4F" cx="8.5" cy="20.5" r="2.5"></circle>
        <circle id="Oval-Copy" fill="#E89A4F" cx="20.5" cy="8.5" r="2.5"></circle>
        <g id="sidebar-線條">
            <mask id="mask-2" fill="white">
                <use xlink:href="#path-1"></use>
            </mask>
            <g id="basic-/-path-(Background/Mask)"></g>
            <path d="M8.03196716,14.5538187 L14.5538187,8.03196716 C14.2019291,7.43645382 14,6.74180841 14,6 C14,3.79086089 15.7908611,2 18,2 C20.2091389,2 22,3.79086089 22,6 C22,8.20913887 20.2091389,10 18,10 C17.2581911,10 16.5635462,9.79807043 15.9680328,9.44618082 L9.44618082,15.9680328 C9.79807043,16.5635462 10,17.2581911 10,18 C10,20.2091389 8.20913887,22 6,22 C3.79086089,22 2,20.2091389 2,18 C2,15.7908611 3.79086089,14 6,14 C6.74180841,14 7.43645382,14.2019291 8.03196716,14.5538187 L8.03196716,14.5538187 Z M6,20 C7.10456944,20 8,19.1045704 8,18 C8,16.8954306 7.10456944,16 6,16 C4.89543056,16 4,16.8954306 4,18 C4,19.1045704 4.89543056,20 6,20 C6.73637962,20 6.73637962,20 6,20 Z M20,6 C20,7.10456944 19.1045704,8 18,8 C16.8954306,8 16,7.10456944 16,6 C16,4.89543056 16.8954306,4 18,4 C19.1045704,4 20,4.89543056 20,6 C20,6.73637962 20,6.73637962 20,6 Z" id="basic-/-path" fill="#FFFFFF" mask="url(#mask-2)"></path>
        </g>
    </g>
</svg>