<?xml version="1.0" encoding="UTF-8"?>
<svg width="24px" height="23px" viewBox="0 0 24 23" version="1.1" xmlns="http://www.w3.org/2000/svg" xmlns:xlink="http://www.w3.org/1999/xlink">
    <title>sidebar/sidebar-文字</title>
    <g id="sidebar/sidebar-文字" stroke="none" stroke-width="1" fill="none" fill-rule="evenodd">
        <path d="M17.7111111,19.8 L17.7111111,7.08403361 L17.7111111,7.08403361 L21.9579832,7.08403361 C22.5334732,7.08403361 23,6.6175068 23,6.04201681 C23,5.46652682 22.5334732,5 21.9579832,5 L11.0420168,5 C10.4665268,5 10,5.46652682 10,6.04201681 C10,6.6175068 10.4665268,7.08403361 11.0420168,7.08403361 L15.3111111,7.08403361 L15.3111111,7.08403361 L15.3111111,19.8 C15.3111111,20.4627417 15.8483694,21 16.5111111,21 C17.1738528,21 17.7111111,20.4627417 17.7111111,19.8 Z" id="T" fill="#E89A4F" fill-rule="nonzero"></path>
        <path d="M15.3340874,21.2361939 L15.3340874,2.99579832 L15.3340874,2.99579832 L21.6100004,2.99579832 C22.4372672,2.99579832 23.1078995,2.32516602 23.1078995,1.49789916 C23.1078995,0.670632297 22.4372672,-2.37241251e-15 21.6100004,0 L5.49789916,0 C4.6706323,-7.00781476e-17 4,0.670632297 4,1.49789916 C4,2.32516602 4.6706323,2.99579832 5.49789916,2.99579832 L11.8064752,2.99579832 L11.8064752,2.99579832 L11.8064752,21.2361939 C11.8064752,22.2103171 12.5961581,23 13.5702813,23 C14.5444045,23 15.3340874,22.2103171 15.3340874,21.2361939 Z" id="T" fill="#282C34" fill-rule="nonzero"></path>
    </g>
</svg>