<?xml version="1.0" encoding="UTF-8"?>
<svg width="24px" height="24px" viewBox="0 0 24 24" version="1.1" xmlns="http://www.w3.org/2000/svg" xmlns:xlink="http://www.w3.org/1999/xlink">
    <title>sidebar/sidebar-貼圖</title>
    <defs>
        <rect id="path-1" x="0" y="0" width="24" height="24"></rect>
    </defs>
    <g id="sidebar/sidebar-貼圖" stroke="none" stroke-width="1" fill="none" fill-rule="evenodd">
        <path d="M11,17.5 C11,21.0841 13.9159,24 17.5,24 C21.0841,24 24,21.0841 24,17.5 C24,13.9159 21.0841,11 17.5,11 C13.9159,11 11,13.9159 11,17.5 Z" id="basic-/-happy" fill="#E89A4F" fill-rule="nonzero"></path>
        <g id="sidebar-貼圖">
            <mask id="mask-2" fill="white">
                <use xlink:href="#path-1"></use>
            </mask>
            <g id="basic-/-happy-(Background/Mask)"></g>
            <path d="M2,12 C2,17.5139999 6.48600006,22 12,22 C17.5139999,22 22,17.5139999 22,12 C22,6.48600006 17.5139999,2 12,2 C6.48600006,2 2,6.48600006 2,12 Z M4,12 C4,7.58900023 7.58900023,4 12,4 C16.4109998,4 20,7.58900023 20,12 C20,16.4109998 16.4109998,20 12,20 C7.58900023,20 4,16.4109998 4,12 Z M10,10.5 C10,9.67157286 9.32842708,9 8.5,9 C7.67157286,9 7,9.67157286 7,10.5 C7,11.3284271 7.67157286,12 8.5,12 C9.32842708,12 10,11.3284271 10,10.5 Z M16.9860001,10.493 C16.9860001,9.66843891 16.3175611,9 15.493,9 C14.6684389,9 14,9.66843891 14,10.493 C14,11.3175611 14.6684389,11.9860001 15.493,11.9860001 C16.3175611,11.9860001 16.9860001,11.3175611 16.9860001,10.493 Z M17,14 L7,14 C7.66666667,16.6666667 9.33333333,18 12,18 C14.6666667,18 16.3333333,16.6666667 17,14 Z" id="basic-/-happy" fill="#282C34" mask="url(#mask-2)"></path>
        </g>
    </g>
</svg>