<?xml version="1.0" encoding="UTF-8"?>
<svg width="24px" height="24px" viewBox="0 0 24 24" version="1.1" xmlns="http://www.w3.org/2000/svg" xmlns:xlink="http://www.w3.org/1999/xlink">
    <title>sample</title>
    <g id="sample" stroke="none" stroke-width="1" fill="none" fill-rule="evenodd">
        <g id="Group" transform="translate(5.000000, 2.700000)">
            <path d="M12.5583997,17.4880052 C11.9718929,18.1706649 11.266593,18.1706649 10.4424998,17.4880052 C10.2543998,16.6025452 9.92770013,15.3114702 9.53260012,14.7662318 C9.16630011,14.2607595 8.78920003,13.8286341 8.45620003,13.4477626 C7.57960005,12.4456551 7,11.7828851 7,10.4184636 C7,7.98212278 9.01870003,6 11.5,6 C13.9813,6 16,7.98212278 16,10.4184636 C16,11.7625602 15.4213002,12.4279808 14.5465002,13.4345069 C14.2108002,13.8215643 13.8301001,14.2589922 13.4638001,14.7706503 C13.0732002,15.3158887 12.7473997,16.6043125 12.5583997,17.4880052 Z" id="basic-/-bulb-copy" fill="#E89A4F"></path>
            <path d="M10.25,17 L10.25,19 L4.45,19 L4.45,17 L10.25,17 Z M14.3333333,6.5263806 C14.3333333,2.92848024 11.1923333,0 7.33333333,0 C3.47433337,0 0.333333333,2.92848024 0.333333333,6.5263806 C0.333333333,8.65677778 1.40033313,9.81567598 2.43433317,10.9363488 C2.79233318,11.3260669 3.16333376,11.7297711 3.51833375,12.1940764 C3.66233375,12.3861385 3.89833336,13.1226867 4.10933336,13.9851013 L4.33333333,15.8497815 C7.00000008,15.8497815 7.66666659,15.8497815 10.3333333,15.8497815 L10.5593332,13.9851013 C10.7723332,13.120822 11.0093336,12.3824085 11.1523336,12.1903464 C11.5043336,11.7213794 11.8783335,11.3139469 12.2393335,10.919567 C13.2693334,9.79516487 14.3333333,8.63253691 14.3333333,6.5263806 Z M8.41887146,13.9851013 L6.24871777,13.9851013 C6.05579469,13.0508965 5.72071808,11.6887477 5.3154873,11.1134939 C4.93979499,10.5801953 4.55302567,10.1242814 4.21148721,9.72244284 C3.31241031,8.66516923 2.71794872,7.96591372 2.71794872,6.5263806 C2.71794872,3.95591901 4.78841028,1.86468017 7.33333333,1.86468017 C9.87825638,1.86468017 11.9487179,3.95591901 11.9487179,6.5263806 C11.9487179,7.9444699 11.3551797,8.646522 10.4579489,9.70845741 C10.1136412,10.1168224 9.72317964,10.5783308 9.34748733,11.1181557 C8.94687196,11.6934095 8.61271761,13.0527612 8.41887146,13.9851013 Z" id="basic-/-bulb" fill="#282C34"></path>
        </g>
    </g>
</svg>