<?xml version="1.0" encoding="UTF-8"?>
<svg width="24px" height="24px" viewBox="0 0 24 24" version="1.1" xmlns="http://www.w3.org/2000/svg" xmlns:xlink="http://www.w3.org/1999/xlink">
    <title>sidebar/sidebar-更多 copy</title>
    <defs>
        <rect id="path-1" x="0" y="0" width="24" height="24"></rect>
    </defs>
    <g id="sidebar/sidebar-更多-copy" stroke="none" stroke-width="1" fill="none" fill-rule="evenodd">
        <g id="menu-/-more_horizontal">
            <mask id="mask-2" fill="white">
                <use xlink:href="#path-1"></use>
            </mask>
            <g id="menu-/-more_horizontal-(Background/Mask)"></g>
            <path d="M5,13 C5,14.0999999 5.89999998,15 7,15 C8.0999999,15 9,14.0999999 9,13 C9,11.9 8.0999999,11 7,11 C5.89999998,11 5,11.9 5,13 Z M17,13 C17,14.0999999 17.8999996,15 19,15 C20.1000004,15 21,14.0999999 21,13 C21,11.9 20.1000004,11 19,11 C17.8999996,11 17,11.9 17,13 Z M13,11 C14.1000004,11 15,11.9 15,13 C15,14.0999999 14.1000004,15 13,15 C11.9000001,15 11,14.0999999 11,13 C11,11.9 11.9000001,11 13,11 Z" fill="#E89A4F" mask="url(#mask-2)"></path>
            <path d="M4,12 C4,13.0999999 4.89999998,14 6,14 C7.0999999,14 8,13.0999999 8,12 C8,10.9 7.0999999,10 6,10 C4.89999998,10 4,10.9 4,12 Z M16,12 C16,13.0999999 16.8999996,14 18,14 C19.1000004,14 20,13.0999999 20,12 C20,10.9 19.1000004,10 18,10 C16.8999996,10 16,10.9 16,12 Z M12,10 C13.1000004,10 14,10.9 14,12 C14,13.0999999 13.1000004,14 12,14 C10.9000001,14 10,13.0999999 10,12 C10,10.9 10.9000001,10 12,10 Z" fill="#FFFFFF" mask="url(#mask-2)"></path>
        </g>
    </g>
</svg>