<?xml version="1.0" encoding="UTF-8"?>
<svg width="24px" height="24px" viewBox="0 0 24 24" version="1.1" xmlns="http://www.w3.org/2000/svg" xmlns:xlink="http://www.w3.org/1999/xlink">
    <title>背景</title>
    <defs>
        <rect id="path-1" x="0" y="0" width="24" height="24"></rect>
    </defs>
    <g id="背景" stroke="none" stroke-width="1" fill="none" fill-rule="evenodd">
        <path d="M13.2222222,12 C12.5481666,12 12,12.5481666 12,13.2222222 L12,21.7777778 C12,22.4518337 12.5481666,23 13.2222222,23 L21.7777778,23 C22.4518337,23 23,22.4518337 23,21.7777778 L23,13.2222222 C23,12.5481666 22.4518337,12 21.7777778,12 L13.2222222,12 Z" id="basic-/-image_alt" fill="#E89A4F" fill-rule="nonzero"></path>
        <g id="basic-/-image_alt">
            <mask id="mask-2" fill="white">
                <use xlink:href="#path-1"></use>
            </mask>
            <g id="basic-/-image_alt-(Background/Mask)"></g>
            <path d="M5,3 C3.89699996,3 3,3.89699996 3,5 L3,19 C3,20.1030006 3.89699996,21 5,21 L19,21 C20.1030006,21 21,20.1030006 21,19 L21,5 C21,3.89699996 20.1030006,3 19,3 L5,3 Z M5,5 L19,5 L19.0020008,19 L5,19 L5,5 Z" fill="#282C34" mask="url(#mask-2)"></path>
            <path d="M18,6 L17.9998644,7.41486438 L7.41486438,17.9998644 L6,18 L5.99986438,16.5858644 L16.5858644,5.99986438 L18,6 Z M17.9998644,8.82786438 L17.9998644,11.6558644 L11.6558644,17.9998644 L8.82786438,17.9998644 L17.9998644,8.82786438 Z M17.9998644,13.0698644 L17.9998644,15.8978644 L15.8978644,17.9998644 L13.0698644,17.9998644 L17.9998644,13.0698644 Z M17.9998644,17.3128644 L18,18 L17.3128644,17.9998644 L17.9998644,17.3128644 Z M15.1708644,5.99986438 L5.99986438,15.1708644 L5.99986438,12.3428644 L12.3428644,5.99986438 L15.1708644,5.99986438 Z M10.9288644,5.99986438 L5.99986438,10.9288644 L5.99986438,8.10086438 L8.10086438,5.99986438 L10.9288644,5.99986438 Z M6.68686438,5.99986438 L5.99986438,6.68686438 L6,6 L6.68686438,5.99986438 Z" id="合併形狀" fill="#282C34" mask="url(#mask-2)"></path>
        </g>
    </g>
</svg>