<?xml version="1.0" encoding="UTF-8"?>
<svg width="24px" height="24px" viewBox="0 0 24 24" version="1.1" xmlns="http://www.w3.org/2000/svg" xmlns:xlink="http://www.w3.org/1999/xlink">
    <title>剪下</title>
    <g id="剪下" stroke="none" stroke-width="1" fill="none" fill-rule="evenodd">
        <g id="Group" transform="translate(4.000000, 2.000000)" fill="#555555">
            <path d="M3.5,12 C5.43299662,12 7,13.5670034 7,15.5 C7,17.4329966 5.43299662,19 3.5,19 C1.56700338,19 0,17.4329966 0,15.5 C0,13.5670034 1.56700338,12 3.5,12 Z M3.5,14 C2.67157288,14 2,14.6715729 2,15.5 C2,16.3284271 2.67157288,17 3.5,17 C4.32842712,17 5,16.3284271 5,15.5 C5,14.6715729 4.32842712,14 3.5,14 Z" id="Oval" fill-rule="nonzero"></path>
            <path d="M12.5,12 C14.4329966,12 16,13.5670034 16,15.5 C16,17.4329966 14.4329966,19 12.5,19 C10.5670034,19 9,17.4329966 9,15.5 C9,13.5670034 10.5670034,12 12.5,12 Z M12.5,14 C11.6715729,14 11,14.6715729 11,15.5 C11,16.3284271 11.6715729,17 12.5,17 C13.3284271,17 14,16.3284271 14,15.5 C14,14.6715729 13.3284271,14 12.5,14 Z" id="Oval-Copy" fill-rule="nonzero"></path>
            <polygon id="Rectangle" transform="translate(8.000000, 7.000000) scale(-1, 1) rotate(-31.000000) translate(-8.000000, -7.000000) " points="7 1.17552537 9 0 9 14 7 14"></polygon>
            <polygon id="Rectangle-Copy" transform="translate(8.000000, 7.000000) rotate(-31.000000) translate(-8.000000, -7.000000) " points="7 1.17552537 9 0 9 14 7 14"></polygon>
        </g>
    </g>
</svg>