<?xml version="1.0" encoding="UTF-8"?>
<svg width="24px" height="24px" viewBox="0 0 24 24" version="1.1" xmlns="http://www.w3.org/2000/svg" xmlns:xlink="http://www.w3.org/1999/xlink">
    <title>discard</title>
    <g id="discard" stroke="none" stroke-width="1" fill="none" fill-rule="evenodd">
        <path d="M22,5.18363737 L20,5.18363737 L19.9980282,4.08056749 L19.9943106,4.01937432 L19.9884329,3.99142951 C19.987262,3.98834288 19.9859926,3.98574169 19.9846205,3.98317601 C19.9906667,3.99448152 20.0055185,4.0093333 20.016824,4.01537955 L19.9974043,4.00834551 L19.9194325,4.00197182 L19.7180574,4 L19.7180574,2 C20.2754304,2 20.610143,2.06463599 20.9600217,2.25175315 C21.2972531,2.4321065 21.5678935,2.70274685 21.7482468,3.03997829 C21.935364,3.38985697 22,3.72456958 22,4.2819426 L22,5.18363737 Z M22,9.18363737 L20,9.18363737 L20,6.18363737 L22,6.18363737 L22,9.18363737 Z M22,13.1836374 L20,13.1836374 L20,10.1836374 L22,10.1836374 L22,13.1836374 Z M20.6872648,17.8698092 L20.0174787,15.9852969 C20.0055185,15.9906667 19.9906667,16.0055185 19.9846205,16.016824 L19.9916545,15.9974043 L19.9980282,15.9194325 L20,15.7180574 L20,14.1836374 L22,14.1836374 L22,15.7180574 C22,16.2754304 21.935364,16.610143 21.7482468,16.9600217 C21.5678935,17.2972531 21.2972531,17.5678935 20.9600217,17.7482468 C20.8708622,17.7959299 20.7833691,17.8356522 20.6872648,17.8698092 Z M16.3507827,18 L16.3507827,16 L19.3507827,16 L19.3507827,18 L16.3507827,18 Z M12.3507827,18 L12.3507827,16 L15.3507827,16 L15.3507827,18 L12.3507827,18 Z M8.35078266,18 L8.35078266,16 L11.3507827,16 L11.3507827,18 L8.35078266,18 Z M6,13.8852027 L8,13.8852027 L8.00192028,15.9196657 L8.00559427,15.9806395 L8.01147469,16.0084232 C8.0126525,16.0115049 8.01393265,16.0141164 8.01532035,16.016714 L7.9911582,15.9899052 L6.78057277,17.5819111 C6.56389227,17.417144 6.38669853,17.2093925 6.25409439,16.9643736 C6.0651132,16.6110641 6,16.2766206 6,15.7180574 L6,13.8852027 Z M6,9.8852027 L8,9.8852027 L8,12.8852027 L6,12.8852027 L6,9.8852027 Z M6,5.8852027 L8,5.8852027 L8,8.8852027 L6,8.8852027 L6,5.8852027 Z M8.58037727,2 L8.58037727,4 L8.08056749,4.00197182 L8.01937432,4.00568942 L7.99142951,4.01156707 C7.98834288,4.01273799 7.98574169,4.01400741 7.98317601,4.01537955 C7.99448152,4.0093333 8.0093333,3.99448152 8.01537955,3.98317601 L8.00834551,4.00259572 L8.00197182,4.08056749 L8,4.8852027 L6,4.8852027 L6,4.2819426 C6,3.72456958 6.06463599,3.38985697 6.25175315,3.03997829 C6.4321065,2.70274685 6.70274685,2.4321065 7.03997829,2.25175315 C7.38985697,2.06463599 7.72456958,2 8.2819426,2 L8.58037727,2 Z M12.5803773,2 L12.5803773,4 L9.58037727,4 L9.58037727,2 L12.5803773,2 Z M16.5803773,2 L16.5803773,4 L13.5803773,4 L13.5803773,2 L16.5803773,2 Z M19.7180574,2 L19.7180574,4 L17.5803773,4 L17.5803773,2 L19.7180574,2 Z" id="Rectangle" fill="#555555" fill-rule="nonzero"></path>
        <g id="Group-2" transform="translate(10.000000, 6.166667)" fill="#555555" fill-rule="nonzero">
            <polygon id="Rectangle" transform="translate(4.000000, 3.888889) rotate(-315.000000) translate(-4.000000, -3.888889) " points="8 3 8 4.77777778 2.27373675e-13 4.77777778 2.27373675e-13 3"></polygon>
            <polygon id="Rectangle" transform="translate(4.000000, 3.888889) scale(-1, 1) rotate(-315.000000) translate(-4.000000, -3.888889) " points="8 3 8 4.77777778 0 4.77777778 0 3"></polygon>
        </g>
        <path d="M15.7180574,20 L12.7180574,20 L12.7180574,22 L15.7180574,22 L15.7180574,20 Z M11.7180574,20 L8.7180574,20 L8.7180574,22 L11.7180574,22 L11.7180574,20 Z M7.7180574,20 L4.7180574,20 L4.7180574,22 L7.7180574,22 L7.7180574,20 Z M3.46548664,21.9169238 L3.97510491,19.982941 C3.99437829,19.9905921 4.00927125,20.0054025 4.01537955,20.016824 L4.00834551,19.9974043 L4.00197182,19.9194325 L4,18.2524774 L2,18.2524774 L2,19.7180574 C2,20.2754304 2.06463599,20.610143 2.25175315,20.9600217 C2.4329791,21.2988848 2.70439339,21.5687933 3.0461199,21.7515126 C3.18326851,21.824017 3.31492077,21.8772486 3.46548664,21.9169238 Z M4,17.2524774 L4,14.2524774 L2,14.2524774 L2,17.2524774 L4,17.2524774 Z M4,13.2524774 L4,10.2524774 L2,10.2524774 L2,13.2524774 L4,13.2524774 Z M4,9.25247743 L4,8.2819426 L2,8.2819426 L2,9.25247743 L4,9.25247743 Z" id="Path" fill="#555555" fill-rule="nonzero"></path>
    </g>
</svg>