<?xml version="1.0" encoding="UTF-8"?>
<svg width="24px" height="24px" viewBox="0 0 24 24" version="1.1" xmlns="http://www.w3.org/2000/svg" xmlns:xlink="http://www.w3.org/1999/xlink">
    <title>群組</title>
    <g id="群組" stroke="none" stroke-width="1" fill="none" fill-rule="evenodd">
        <g id="Group-2" transform="translate(1.500000, 1.500000)" fill="#555555" fill-rule="nonzero">
            <g id="Group" transform="translate(4.500000, 4.500000)">
                <path d="M8,0 C8.55228475,0 9,0.44771525 9,1 L9,8 C9,8.55228475 8.55228475,9 8,9 L1,9 C0.44771525,9 0,8.55228475 0,8 L0,1 C0,0.44771525 0.44771525,0 1,0 L8,0 Z M7,2 L2,2 L2,7 L7,7 L7,2 Z" id="Rectangle"></path>
                <path d="M11,3 C11.5522847,3 12,3.44771525 12,4 L12,11 C12,11.5522847 11.5522847,12 11,12 L4,12 C3.44771525,12 3,11.5522847 3,11 L3,4 C3,3.44771525 3.44771525,3 4,3 L11,3 Z M10,5 L5,5 L5,10 L10,10 L10,5 Z" id="Rectangle-Copy"></path>
            </g>
            <path d="M16.4985888,17.5 L16.4985888,19.5 L4.51801509,19.5 L4.51801509,17.5 L16.4985888,17.5 Z M19.5,4.53209439 L19.5,16.5411152 L17.5,16.5411152 L17.5,4.53209439 L19.5,4.53209439 Z M3.5,4.52088796 L3.5,16.5160642 L1.5,16.5160642 L1.5,4.52088796 L3.5,4.52088796 Z M16.5407015,1.5 L16.5407015,3.5 L4.51946177,3.5 L4.51946177,1.5 L16.5407015,1.5 Z" id="Shape"></path>
            <path d="M18.5,0 C19.8807119,0 21,1.11928813 21,2.5 C21,3.88071187 19.8807119,5 18.5,5 C17.1192881,5 16,3.88071187 16,2.5 C16,1.11928813 17.1192881,0 18.5,0 Z M18.5,2 C18.2238576,2 18,2.22385763 18,2.5 C18,2.77614237 18.2238576,3 18.5,3 C18.7761424,3 19,2.77614237 19,2.5 C19,2.22385763 18.7761424,2 18.5,2 Z" id="Oval"></path>
            <path d="M2.5,0 C3.88071187,0 5,1.11928813 5,2.5 C5,3.88071187 3.88071187,5 2.5,5 C1.11928813,5 0,3.88071187 0,2.5 C0,1.11928813 1.11928813,0 2.5,0 Z M2.5,2 C2.22385763,2 2,2.22385763 2,2.5 C2,2.77614237 2.22385763,3 2.5,3 C2.77614237,3 3,2.77614237 3,2.5 C3,2.22385763 2.77614237,2 2.5,2 Z" id="Oval-Copy-2"></path>
            <path d="M18.5,16 C19.8807119,16 21,17.1192881 21,18.5 C21,19.8807119 19.8807119,21 18.5,21 C17.1192881,21 16,19.8807119 16,18.5 C16,17.1192881 17.1192881,16 18.5,16 Z M18.5,18 C18.2238576,18 18,18.2238576 18,18.5 C18,18.7761424 18.2238576,19 18.5,19 C18.7761424,19 19,18.7761424 19,18.5 C19,18.2238576 18.7761424,18 18.5,18 Z" id="Oval-Copy"></path>
            <path d="M2.5,16 C3.88071187,16 5,17.1192881 5,18.5 C5,19.8807119 3.88071187,21 2.5,21 C1.11928813,21 0,19.8807119 0,18.5 C0,17.1192881 1.11928813,16 2.5,16 Z M2.5,18 C2.22385763,18 2,18.2238576 2,18.5 C2,18.7761424 2.22385763,19 2.5,19 C2.77614237,19 3,18.7761424 3,18.5 C3,18.2238576 2.77614237,18 2.5,18 Z" id="Oval-Copy-3"></path>
        </g>
    </g>
</svg>