<?xml version="1.0" encoding="UTF-8"?>
<svg width="24px" height="24px" viewBox="0 0 24 24" version="1.1" xmlns="http://www.w3.org/2000/svg" xmlns:xlink="http://www.w3.org/1999/xlink">
    <title>sub-nav/sub-nav-重做</title>
    <g id="sub-nav/sub-nav-重做" stroke="none" stroke-width="1" fill="none" fill-rule="evenodd">
        <g id="重做" transform="translate(13.000000, 12.000000) scale(-1, 1) translate(-13.000000, -12.000000) translate(4.000000, 3.000000)" fill="#555555">
            <path d="M8.25563945,4 C13.5883573,4.0013241 18,7.08549055 18,11.0361018 C18,13.7257783 15.9292166,16.0939557 12.7589683,17.2822616 C11.9143903,17.5988353 11.0086255,17.8246193 10.0667985,17.951635 L9.66102371,18 L9.45597544,16.259932 C10.377393,16.1644289 11.2584361,15.9594019 12.0662018,15.6566266 C14.5803653,14.7142413 16.1333333,12.9382449 16.1333333,11.0361018 C16.1333333,8.23961942 12.7939772,5.84915572 8.51831694,5.75362729 L8.25539236,5.75066214 L4,5.75066214 L4,4 L8.25563945,4 Z" id="路徑" fill-rule="nonzero"></path>
            <polygon id="三角形" transform="translate(5.000000, 4.500000) rotate(-90.000000) translate(-5.000000, -4.500000) " points="5 0 9 9 1 9"></polygon>
        </g>
    </g>
</svg>