<?xml version="1.0" encoding="UTF-8"?>
<svg width="24px" height="24px" viewBox="0 0 24 24" version="1.1" xmlns="http://www.w3.org/2000/svg" xmlns:xlink="http://www.w3.org/1999/xlink">
    <title>text / text_underline</title>
    <g id="text-/-text_underline" stroke="none" stroke-width="1" fill="none" fill-rule="evenodd">
        <g id="Group" transform="translate(6.000000, 4.000000)" fill="#555555">
            <path d="M6.00892857,13.862 C7.6875,13.862 8.97321429,13.4155714 9.88392857,12.5584286 C10.7946429,11.6834286 11.2589286,10.4155714 11.2589286,8.75485714 L11.2589286,0.862 L9.3125,0.862 L9.3125,8.79057143 C9.3125,9.93342857 9.04464286,10.7727143 8.52678571,11.3262857 C7.99107143,11.8798571 7.15178571,12.1655714 6.00892857,12.1655714 C4.84821429,12.1655714 4.00892857,11.8798571 3.47321429,11.3262857 C2.9375,10.7727143 2.6875,9.93342857 2.6875,8.79057143 L2.6875,0.862 L0.741071429,0.862 L0.741071429,8.75485714 C0.741071429,10.4155714 1.20535714,11.6834286 2.13392857,12.5762857 C3.02678571,13.4334286 4.3125,13.862 6.00892857,13.862 Z" id="U" fill-rule="nonzero"></path>
            <rect id="Rectangle" x="0" y="15" width="12" height="1.5"></rect>
        </g>
    </g>
</svg>