<?xml version="1.0" encoding="UTF-8"?>
<svg width="24px" height="24px" viewBox="0 0 24 24" version="1.1" xmlns="http://www.w3.org/2000/svg" xmlns:xlink="http://www.w3.org/1999/xlink">
    <title>sub-nav/sub-nav-復原</title>
    <g id="sub-nav/sub-nav-復原" stroke="none" stroke-width="1" fill="none" fill-rule="evenodd">
        <g id="復原" transform="translate(4.000000, 3.000000)" fill="#555555">
            <path d="M7.25563945,4 C12.5883573,4.0013241 17,7.08549055 17,11.0361018 C17,13.7257783 14.9292166,16.0939557 11.7589683,17.2822616 C10.9143903,17.5988353 10.0086255,17.8246193 9.06679848,17.951635 L8.66102371,18 L8.45597544,16.259932 C9.37739302,16.1644289 10.2584361,15.9594019 11.0662018,15.6566266 C13.5803653,14.7142413 15.1333333,12.9382449 15.1333333,11.0361018 C15.1333333,8.23961942 11.7939772,5.84915572 7.51831694,5.75362729 L7.25539236,5.75066214 L3,5.75066214 L3,4 L7.25563945,4 Z" id="路徑" fill-rule="nonzero"></path>
            <polygon id="三角形" transform="translate(4.000000, 4.000000) rotate(-90.000000) translate(-4.000000, -4.000000) " points="4 0 8 8 0 8"></polygon>
        </g>
    </g>
</svg>