<svg xmlns="http://www.w3.org/2000/svg" viewBox="0 0 305.57 236.56"><defs><style>.cls-1{fill:#fff;}</style></defs><g id="圖層_2" data-name="圖層 2"><path class="cls-1" d="M2.3,89.63C-.76,81-1,72.81,3.82,60.81c11-27.43,40-33.42,66.35-35.6q32-2.64,64-6.11c27.76-3.05,55.18-8.3,82.78-12.44,12.62-1.9,25-5.64,37.79-6.26,11.19-.55,41.51-2.06,48.6,8.67,6.09,9.21-1.75,23.12-6.39,31.07,0,0-17,39-75,75-10.36,7.4-20.51,15.13-30.46,23.07-12,9.59-26,18.27-34.78,31.23-9.35,13.85-14.82,28.68-26.3,41.51-8.09,9-17.64,17.06-28.79,22-15.61,6.93-30.3,2.59-45.76-2.31-15.23-4.81-44.11-11.2-52.64-27.08-9.15-17,3.24-41.15,11.23-55.92,0,0,13-9-4-41C7.05,100.22,4.16,94.85,2.3,89.63Z"/></g></svg>