<svg xmlns="http://www.w3.org/2000/svg" viewBox="0 0 475.31 429"><defs><style>.cls-1{fill:#1f3642;}</style></defs><g id="圖層_2" data-name="圖層 2"><path class="cls-1" d="M80.94,115.28c41.33-25.56,88.57-47.87,121.81-83.34,17.78-19,51.1-47.11,75.3-22C287.77,20,292.65,35,301.31,46.19c22.47,29,59.75,44.4,87.2,68.42,30.92,27.06,59.29,58,80.31,93.4,0,0,36.57,70.52-64,122.76-21.06,10.94-41.29,29.48-54.06,49.47-5.71,8.95-9.5,17.36-17.55,24.65-25.66,23.23-73.72,29.23-106,19.91-33.17-9.57-65-23.2-96.06-38.14-19.74-9.5-41.27-18-58.47-31.89-36-29-54.95-75.47-64.88-119.33-5.59-24.74-12-54.11-4.18-79C14.47,121.76,54.8,131.42,80.94,115.28Z"/></g></svg>