<svg xmlns="http://www.w3.org/2000/svg" viewBox="0 0 838.82 780.05"><defs><style>.cls-1{fill:none;stroke:#98abae;stroke-miterlimit:10;stroke-width:4px;}</style></defs><g id="圖層_2" data-name="圖層 2"><path class="cls-1" d="M221,733.23c82.29,38.46,169.57,55.28,263.08,38.1,80.17-14.72,161-27.45,238-55,62.73-22.44,107-71.44,113.7-138.67,11.79-119-76.31-260.52-177.39-319.13-45.1-26.14-89.22-54.24-132.28-83.61C403.15,91,318.7-53,150.16,23.86,81.51,55.17,28.3,119.15,7.62,191.45c-17.25,60.3,8.63,117.33,31.3,172.12,11.55,27.92,24.2,56.41,28.19,86.65,12.77,96.89-15.69,181.5,81,242.82A649.71,649.71,0,0,0,221,733.23Z"/></g></svg>