<svg xmlns="http://www.w3.org/2000/svg" viewBox="0 0 355.93 246.51"><defs><style>.cls-1{fill:#fff;}</style></defs><g id="圖層_2" data-name="圖層 2"><path class="cls-1" d="M65.44,157.19c13.79-1.36,28-6.29,41.61-7.26,47.13-3.37,90.71,14.35,114.89,56.06,10.61,18.33,29.6,44,54,40.11,14.54-2.34,28.78-18.41,39.81-28.42,27.84-25.27,51.05-78.51,34.79-115C341.49,82.25,324.92,65.73,305,55.85c-21.14-10.48-47.17-6.78-69.5-14.53C190.65,25.74,143.9-9.73,94,2.53,70.26,8.37,65.79,18,55.18,37.06,49.31,47.61,42.88,59.7,33.1,67.19,16.37,80,.45,86.12,0,111.05s31.11,43.59,52.73,46.14A58.7,58.7,0,0,0,65.44,157.19Z"/></g></svg>