<svg xmlns="http://www.w3.org/2000/svg" viewBox="0 0 623.45 408.44"><defs><style>.cls-1{fill:#e89a4f;}</style></defs><g id="圖層_2" data-name="圖層 2"><path class="cls-1" d="M70,163.67C168.78,80.9,283.25,8.9,411.28.67c33.12-2.13,67.42.34,97.4,14.56s55,41.86,59.4,74.76c3.38,25.47-5.24,53.13,6.21,76.14,5.37,10.79,14.57,19.08,22.28,28.35,38.23,46,35.3,120.73-6.39,163.55C548.9,400.43,484,407.29,424.82,408.26c-56,.93-113.18-1.33-166-20-30.22-10.69-58.57-26.61-89.57-34.77-29.47-7.75-60.42-8.23-90.09-15.18-53-12.41-100.79-56.71-68.82-113,10.89-19.16,27.62-34.22,44.32-48.6Q62.23,170.14,70,163.67Z"/></g></svg>