<svg xmlns="http://www.w3.org/2000/svg" viewBox="0 0 412.59 285.74"><defs><style>.cls-1{fill:#e89a4f;}</style></defs><g id="圖層_2" data-name="圖層 2"><path class="cls-1" d="M75.86,182.21c16-1.57,32.41-7.29,48.23-8.42,54.63-3.9,105.15,16.64,133.17,65,12.31,21.24,34.32,51.06,62.61,46.5,16.86-2.72,33.36-21.34,46.15-32.95C398.3,223,425.2,161.33,406.36,119c-10.52-23.63-29.72-42.79-52.81-54.23C329,52.6,298.87,56.89,273,47.89c-52-18.06-106.19-59.17-164-45C81.45,9.7,76.26,20.85,64,43,57.16,55.19,49.71,69.2,38.37,77.89,19,92.75.52,99.83,0,128.72s36.05,50.54,61.12,53.5A68.43,68.43,0,0,0,75.86,182.21Z"/></g></svg>