<svg xmlns="http://www.w3.org/2000/svg" viewBox="0 0 509.96 290.24"><defs><style>.cls-1{fill:#fff;}</style></defs><g id="圖層_2" data-name="圖層 2"><path class="cls-1" d="M44.14,109A364.81,364.81,0,0,1,97.37,69.3C173.61,23.48,260-6.9,349.94,1.35c37.54,3.44,77.36,10.19,110.8,28.49,31.51,17.24,45.07,43.79,48.82,78.56,5.26,48.75-42.07,42.7-74.86,55-23.94,9-25.21,22.93-34.88,42.81-18,36.9-50.51,62-89.82,72.71-36.11,9.82-82.69,20.84-115.7-2.8-29.13-20.86-61.1-34.62-96.45-40.64-22.82-3.89-45.09-4.53-66.16-15.13C-25.93,191.36,5.32,144.14,44.14,109Z"/></g></svg>