<svg xmlns="http://www.w3.org/2000/svg" viewBox="0 0 937.71 669.54"><defs><style>.cls-1{fill:none;stroke:#98abae;stroke-miterlimit:10;stroke-width:4px;}</style></defs><g id="圖層_2" data-name="圖層 2"><path class="cls-1" d="M477.47,663.49c90.23-10.4,173.37-41.85,244-105.51C782,503.41,844.11,450.21,895.26,386.33c41.65-52,53.68-117,24.1-177.69C867,101.09,717.77,26.83,601,29.92c-52.11,1.39-104.41.6-156.48-1.84C295.83,21.14,148.4-57.22,45.19,96.61c-42,62.65-53.79,145-33.49,217.44,16.93,60.39,68.87,95.38,116.9,130.15,24.48,17.72,50.19,35.34,69.44,59C259.73,579,279.86,666,394.36,667.47A648.84,648.84,0,0,0,477.47,663.49Z"/></g></svg>