<svg xmlns="http://www.w3.org/2000/svg" viewBox="0 0 255.37 145.34"><defs><style>.cls-1{fill:#fff;}</style></defs><g id="圖層_2" data-name="圖層 2"><path class="cls-1" d="M22.1,54.56A182.21,182.21,0,0,1,48.76,34.71c38.18-23,81.42-38.17,126.48-34C194,2.4,214,5.78,230.72,14.94c15.78,8.64,22.57,21.93,24.45,39.34,2.63,24.41-21.07,21.39-37.49,27.54-12,4.49-12.62,11.48-17.47,21.44-9,18.47-25.29,31.05-45,36.41-18.09,4.92-41.41,10.43-57.94-1.4A115.21,115.21,0,0,0,49,117.91c-11.43-1.94-22.58-2.27-33.13-7.57C-13,95.82,2.66,72.18,22.1,54.56Z"/></g></svg>