<svg xmlns="http://www.w3.org/2000/svg" viewBox="0 0 354.5 254.04">
<defs>
<style>.cls-1{fill:#e89a4f;}</style>
</defs>
<g id="圖層_2" data-name="圖層 2">
<path class="cls-1" d="M201.79,8C242.52,25.2,283.35,42.72,320.68,66.4,337,76.76,354.23,91.17,354.5,110.51c.21,15.55-10.84,28.86-22.37,39.3-23.54,21.3-51.46,37.12-79.7,51.63C197.9,229.46,139.31,253.72,78,254c-17.12.09-34.71-1.84-49.94-9.65-42.75-21.9-28.22-68-11.44-102.86C34.35,104.74,63.23,73.21,99,53.36c15.8-8.77,33.36-15.81,44.91-29.71,6.21-7.47,10.78-17,19.5-21.29,10.8-5.31,23.62-.64,34.7,4.05Z"/>
</g>
</svg>